<?xml version="1.0" encoding="UTF-8" standalone="no"?>
<!-- Created with Inkscape (http://www.inkscape.org/) -->

<svg
   width="210mm"
   height="297mm"
   viewBox="0 0 210 297"
   version="1.1"
   id="svg1"
   xml:space="preserve"
   inkscape:version="1.3.2 (091e20e, 2023-11-25, custom)"
   sodipodi:docname="vectors.svg"
   xmlns:inkscape="http://www.inkscape.org/namespaces/inkscape"
   xmlns:sodipodi="http://sodipodi.sourceforge.net/DTD/sodipodi-0.dtd"
   xmlns="http://www.w3.org/2000/svg"
   xmlns:svg="http://www.w3.org/2000/svg"><sodipodi:namedview
     id="namedview1"
     pagecolor="#ffffff"
     bordercolor="#000000"
     borderopacity="0.25"
     inkscape:showpageshadow="2"
     inkscape:pageopacity="0.0"
     inkscape:pagecheckerboard="0"
     inkscape:deskcolor="#d1d1d1"
     inkscape:document-units="mm"
     inkscape:zoom="0.20189198"
     inkscape:cx="138.68802"
     inkscape:cy="512.65037"
     inkscape:window-width="1600"
     inkscape:window-height="837"
     inkscape:window-x="-8"
     inkscape:window-y="-8"
     inkscape:window-maximized="1"
     inkscape:current-layer="layer1" /><defs
     id="defs1" /><g
     inkscape:label="Camada 1"
     inkscape:groupmode="layer"
     id="layer1"><path
       style="fill:#000000;stroke-width:0.231778"
       d="m 12.942822,16.859295 c -0.139472,-0.05628 -0.766556,-0.657676 -0.766556,-0.735152 0,-0.02798 0.07521,-0.100154 0.167129,-0.160384 0.09192,-0.06023 0.298891,-0.232753 0.459933,-0.38339 l 0.292804,-0.273885 0.291293,0.270047 c 0.16021,0.148525 0.372073,0.328003 0.470806,0.398836 l 0.179516,0.128792 -0.136359,0.173351 c -0.187566,0.23845 -0.565139,0.55412 -0.713268,0.596329 -0.06746,0.01922 -0.177841,0.01268 -0.245298,-0.01453 z M 9.0487153,15.997259 C 8.8632088,15.972812 8.5872482,15.918658 8.4354701,15.876917 7.4352022,15.601822 6.2277877,14.735173 6.2277877,14.2923 c 0,-0.132631 0.3276248,-0.788886 0.4598489,-0.921111 0.012171,-0.01217 0.1413505,0.05971 0.287067,0.159728 1.1144057,0.764933 2.6649646,1.189668 3.9979454,1.095128 0.503576,-0.03571 1.341109,-0.198218 1.66355,-0.322773 0.184717,-0.07135 -0.406096,0.595861 -0.78505,0.886568 -0.814357,0.624717 -1.8734079,0.929843 -2.8024337,0.807419 z m 6.6473687,-0.115312 c -0.465518,-0.13327 -0.939902,-0.375919 -1.354967,-0.693072 -0.377671,-0.288579 -0.970542,-0.957309 -0.78505,-0.885497 0.895623,0.34673 2.551029,0.425245 3.556821,0.168697 0.592686,-0.151176 1.623325,-0.609554 2.08545,-0.927504 0.15629,-0.107529 0.294121,-0.185552 0.306292,-0.173382 0.133508,0.133509 0.459849,0.78918 0.459849,0.923913 0,0.346011 -0.81917,1.039251 -1.635389,1.383983 -0.775612,0.327583 -1.895862,0.413893 -2.633006,0.202862 z M 9.9072587,13.688011 C 8.0183376,13.390858 6.5530866,12.372841 5.7093958,10.771446 5.3341558,10.05921 5.2001093,9.6068995 5.3057642,9.4094813 5.4023422,9.2290236 5.8839086,8.9902614 6.4901309,8.8222689 7.1078473,8.6510906 7.1314596,8.6556367 7.2099693,8.9608503 c 0.3288043,1.2782607 0.8138173,2.1889967 1.616494,3.0353797 0.6374306,0.67214 1.4759737,1.249431 2.2126767,1.523306 0.27676,0.102889 0.290498,0.116781 0.153312,0.155043 -0.16032,0.04471 -1.028663,0.05379 -1.2851933,0.01344 z m 5.1512583,-0.01664 c -0.118049,-0.02697 -0.173242,-0.05308 -0.122647,-0.05801 0.182087,-0.01776 1.183871,-0.561354 1.591744,-0.863722 1.228459,-0.910694 2.034299,-2.154505 2.454684,-3.7887842 0.07851,-0.3052137 0.102121,-0.3097598 0.719837,-0.1385819 0.606223,0.167993 1.087788,0.4067552 1.184367,0.5872128 0.105654,0.1974178 -0.02839,0.6497283 -0.403631,1.3619643 -0.923231,1.752368 -2.611762,2.821695 -4.610205,2.919593 -0.329731,0.01616 -0.6961,0.0073 -0.814149,-0.01968 z m -4.3076,-1.328101 C 9.3849519,11.563578 8.4221192,10.24015 8.0972455,8.6957532 7.9302973,7.9021083 8.0222297,6.3076827 8.2606221,5.8622427 8.360499,5.6756211 8.5957704,5.6243614 9.0102307,5.6989222 9.4614696,5.7800995 10.33653,6.0612197 10.33653,6.1250064 c 0,0.02502 -0.04183,0.1640509 -0.09296,0.3089592 C 9.9361521,7.305288 9.8082837,8.8407159 9.9674209,9.7499529 10.112336,10.577929 10.5201,11.599465 10.963769,12.246021 c 0.09999,0.145717 0.172243,0.272437 0.16056,0.281602 -0.01168,0.0092 -0.179719,-0.0738 -0.373412,-0.184356 z m 4.3076,0.191281 c 0,-0.02244 0.08548,-0.165008 0.189949,-0.316852 0.29823,-0.433462 0.709657,-1.353627 0.852441,-1.906506 0.320078,-1.2393734 0.252332,-2.5237249 -0.216283,-4.1002881 -0.03407,-0.1146026 0.01319,-0.1452251 0.44175,-0.2863526 0.966658,-0.3183169 1.45805,-0.3373896 1.605271,-0.062307 0.238393,0.44544 0.330325,2.0398656 0.163375,2.8335105 -0.27044,1.2856267 -1.086251,2.5728182 -2.074187,3.2726642 -0.462235,0.327442 -0.962316,0.62164 -0.962316,0.566131 z"
       id="path1"
       sodipodi:nodetypes="cssscsscssccscsscssssssssssssscssssssscccsssssssccsssssssscssssscssss"
       inkscape:export-filename="lotus_icon.png"
       inkscape:export-xdpi="96"
       inkscape:export-ydpi="96" /><path
       d="m 12.911424,12.968086 c -0.06746,-0.02724 -0.2759,-0.197708 -0.463207,-0.37882 -0.823608,-0.796371 -1.395938,-1.880648 -1.594474,-3.0207277 -0.103861,-0.5964133 -0.0407,-1.902064 0.120855,-2.4982124 0.296074,-1.0925447 0.764648,-1.9662499 1.430381,-2.6670925 0.385319,-0.4056407 0.453942,-0.4527307 0.659754,-0.4527307 0.205814,0 0.274439,0.04709 0.659758,0.4527307 0.66573,0.7008426 1.134306,1.5745478 1.430378,2.6670925 0.161554,0.5961484 0.224718,1.9017991 0.120856,2.4982124 -0.208714,1.1985207 -0.904378,2.4643627 -1.736675,3.1600747 -0.300806,0.251442 -0.453605,0.309744 -0.627626,0.239473 z"
       style="fill:#1667ff;fill-opacity:1;stroke-width:0.231778"
       id="path1-9" /></g></svg>
