<?xml version="1.0" encoding="UTF-8" standalone="no"?>
<!-- Created with Inkscape (http://www.inkscape.org/) -->

<svg
   width="210mm"
   height="297mm"
   viewBox="0 0 210 297"
   version="1.1"
   id="svg1"
   xml:space="preserve"
   inkscape:version="1.3.2 (091e20e, 2023-11-25, custom)"
   sodipodi:docname="vectors.svg"
   xmlns:inkscape="http://www.inkscape.org/namespaces/inkscape"
   xmlns:sodipodi="http://sodipodi.sourceforge.net/DTD/sodipodi-0.dtd"
   xmlns="http://www.w3.org/2000/svg"
   xmlns:svg="http://www.w3.org/2000/svg"><sodipodi:namedview
     id="namedview1"
     pagecolor="#ffffff"
     bordercolor="#000000"
     borderopacity="0.25"
     inkscape:showpageshadow="2"
     inkscape:pageopacity="0.0"
     inkscape:pagecheckerboard="0"
     inkscape:deskcolor="#d1d1d1"
     inkscape:document-units="mm"
     inkscape:zoom="2.284147"
     inkscape:cx="437.36239"
     inkscape:cy="185.40838"
     inkscape:window-width="1600"
     inkscape:window-height="837"
     inkscape:window-x="-8"
     inkscape:window-y="-8"
     inkscape:window-maximized="1"
     inkscape:current-layer="layer1" /><defs
     id="defs1" /><g
     inkscape:label="Camada 1"
     inkscape:groupmode="layer"
     id="layer1"><path
       style="fill:#000000;stroke-width:0.231778"
       d="m 12.942822,16.859295 c -0.139472,-0.05628 -0.766556,-0.657676 -0.766556,-0.735152 0,-0.02798 0.07521,-0.100154 0.167129,-0.160384 0.09192,-0.06023 0.298891,-0.232753 0.459933,-0.38339 l 0.292804,-0.273885 0.291293,0.270047 c 0.16021,0.148525 0.372073,0.328003 0.470806,0.398836 l 0.179516,0.128792 -0.136359,0.173351 c -0.187566,0.23845 -0.565139,0.55412 -0.713268,0.596329 -0.06746,0.01922 -0.177841,0.01268 -0.245298,-0.01453 z M 9.0487153,15.997259 C 8.8632088,15.972812 8.5872482,15.918658 8.4354701,15.876917 7.4352022,15.601822 6.2277877,14.735173 6.2277877,14.2923 c 0,-0.132631 0.3276248,-0.788886 0.4598489,-0.921111 0.012171,-0.01217 0.1413505,0.05971 0.287067,0.159728 1.1144057,0.764933 2.6649646,1.189668 3.9979454,1.095128 0.503576,-0.03571 1.341109,-0.198218 1.66355,-0.322773 0.184717,-0.07135 -0.406096,0.595861 -0.78505,0.886568 -0.814357,0.624717 -1.8734079,0.929843 -2.8024337,0.807419 z m 6.6473687,-0.115312 c -0.465518,-0.13327 -0.939902,-0.375919 -1.354967,-0.693072 -0.377671,-0.288579 -0.970542,-0.957309 -0.78505,-0.885497 0.895623,0.34673 2.551029,0.425245 3.556821,0.168697 0.592686,-0.151176 1.623325,-0.609554 2.08545,-0.927504 0.15629,-0.107529 0.294121,-0.185552 0.306292,-0.173382 0.133508,0.133509 0.459849,0.78918 0.459849,0.923913 0,0.346011 -0.81917,1.039251 -1.635389,1.383983 -0.775612,0.327583 -1.895862,0.413893 -2.633006,0.202862 z M 9.9072587,13.688011 C 8.0183376,13.390858 6.5530866,12.372841 5.7093958,10.771446 5.3341558,10.05921 5.2001093,9.6068995 5.3057642,9.4094813 5.4023422,9.2290236 5.8839086,8.9902614 6.4901309,8.8222689 7.1078473,8.6510906 7.1314596,8.6556367 7.2099693,8.9608503 c 0.3288043,1.2782607 0.8138173,2.1889967 1.616494,3.0353797 0.6374306,0.67214 1.4759737,1.249431 2.2126767,1.523306 0.27676,0.102889 0.290498,0.116781 0.153312,0.155043 -0.16032,0.04471 -1.028663,0.05379 -1.2851933,0.01344 z m 5.1512583,-0.01664 c -0.118049,-0.02697 -0.173242,-0.05308 -0.122647,-0.05801 0.182087,-0.01776 1.183871,-0.561354 1.591744,-0.863722 1.228459,-0.910694 2.034299,-2.154505 2.454684,-3.7887842 0.07851,-0.3052137 0.102121,-0.3097598 0.719837,-0.1385819 0.606223,0.167993 1.087788,0.4067552 1.184367,0.5872128 0.105654,0.1974178 -0.02839,0.6497283 -0.403631,1.3619643 -0.923231,1.752368 -2.611762,2.821695 -4.610205,2.919593 -0.329731,0.01616 -0.6961,0.0073 -0.814149,-0.01968 z m -4.3076,-1.328101 C 9.3849519,11.563578 8.4221192,10.24015 8.0972455,8.6957532 7.9302973,7.9021083 8.0222297,6.3076827 8.2606221,5.8622427 8.360499,5.6756211 8.5957704,5.6243614 9.0102307,5.6989222 9.4614696,5.7800995 10.33653,6.0612197 10.33653,6.1250064 c 0,0.02502 -0.04183,0.1640509 -0.09296,0.3089592 C 9.9361521,7.305288 9.8082837,8.8407159 9.9674209,9.7499529 10.112336,10.577929 10.5201,11.599465 10.963769,12.246021 c 0.09999,0.145717 0.172243,0.272437 0.16056,0.281602 -0.01168,0.0092 -0.179719,-0.0738 -0.373412,-0.184356 z m 4.3076,0.191281 c 0,-0.02244 0.08548,-0.165008 0.189949,-0.316852 0.29823,-0.433462 0.709657,-1.353627 0.852441,-1.906506 0.320078,-1.2393734 0.252332,-2.5237249 -0.216283,-4.1002881 -0.03407,-0.1146026 0.01319,-0.1452251 0.44175,-0.2863526 0.966658,-0.3183169 1.45805,-0.3373896 1.605271,-0.062307 0.238393,0.44544 0.330325,2.0398656 0.163375,2.8335105 -0.27044,1.2856267 -1.086251,2.5728182 -2.074187,3.2726642 -0.462235,0.327442 -0.962316,0.62164 -0.962316,0.566131 z"
       id="path1"
       sodipodi:nodetypes="cssscsscssccscsscssssssssssssscssssssscccsssssssccsssssssscssssscssss"
       inkscape:export-filename="lotus_icon.png"
       inkscape:export-xdpi="96"
       inkscape:export-ydpi="96" /><path
       d="m 12.911424,12.968086 c -0.06746,-0.02724 -0.2759,-0.197708 -0.463207,-0.37882 -0.823608,-0.796371 -1.395938,-1.880648 -1.594474,-3.0207277 -0.103861,-0.5964133 -0.0407,-1.902064 0.120855,-2.4982124 0.296074,-1.0925447 0.764648,-1.9662499 1.430381,-2.6670925 0.385319,-0.4056407 0.453942,-0.4527307 0.659754,-0.4527307 0.205814,0 0.274439,0.04709 0.659758,0.4527307 0.66573,0.7008426 1.134306,1.5745478 1.430378,2.6670925 0.161554,0.5961484 0.224718,1.9017991 0.120856,2.4982124 -0.208714,1.1985207 -0.904378,2.4643627 -1.736675,3.1600747 -0.300806,0.251442 -0.453605,0.309744 -0.627626,0.239473 z"
       style="fill:#1667ff;fill-opacity:1;stroke-width:0.231778"
       id="path1-9" /><path
       style="fill:#000000"
       d="m 11.533543,37.493909 c -1.7596595,-0.426316 -3.2042145,-1.8117 -3.6552195,-3.505496 -0.175673,-0.659759 -0.1724,-2.128568 0.0066,-2.979696 0.364433,-1.732455 1.163634,-3.233082 2.6401895,-4.957376 0.628631,-0.734104 1.892391,-1.818294 2.119451,-1.818294 0.246944,0 2.17996,1.874999 2.81126,2.726884 1.353951,1.82704 2.079513,3.810868 2.076621,5.677887 -0.0022,1.391183 -0.459083,2.524448 -1.407677,3.491292 -1.221541,1.245041 -2.956651,1.76082 -4.591265,1.364799 z m 3.29786,-5.041824 c 0.820357,-0.385613 1.331443,-1.182027 1.331443,-2.074756 0,-0.479453 -0.232579,-1.062903 -0.809963,-2.031878 -0.627361,-1.052848 -2.424439,-3.035346 -2.751454,-3.035346 -0.183744,0 -1.820672,1.71716 -2.333487,2.44786 -0.245666,0.350043 -0.6066035,0.955936 -0.8020825,1.346428 -0.356901,0.71295 -0.90936,2.43793 -0.811983,2.535307 0.02865,0.02865 0.178172,-0.04114 0.332282,-0.155076 0.672079,-0.49689 1.4357485,-0.385603 2.4000505,0.349752 1.017458,0.77589 1.447896,0.932097 2.393765,0.868702 0.33374,-0.02237 0.803737,-0.134564 1.051429,-0.250993 z"
       id="path2"
       inkscape:export-filename="svgs\drop.svg"
       inkscape:export-xdpi="96"
       inkscape:export-ydpi="96" /><path
       style="fill:#000000;stroke-width:0.749178"
       d="m 40.877966,37.596196 c -0.181676,-0.06744 -0.128565,-0.0061 -0.794207,-0.917932 -0.654322,-0.896369 -0.78198,-1.055174 -1.101118,-1.369773 -0.871892,-0.859497 -1.937035,-1.39382 -3.182945,-1.596711 -0.227363,-0.03702 -0.459645,-0.04894 -0.976379,-0.05009 l -0.678041,-0.0015 -0.0079,0.569555 c -0.0064,0.463704 -0.01804,0.609675 -0.06268,0.785436 -0.148207,0.583486 -0.515935,1.032466 -1.068574,1.304684 -0.333744,0.164395 -0.532474,0.211316 -0.895014,0.211316 -0.662837,0 -0.849996,-0.09983 -2.115488,-1.128358 -0.537008,-0.436454 -1.171655,-0.951559 -1.410325,-1.144677 -0.23867,-0.193118 -0.554362,-0.449377 -0.701537,-0.569465 -0.358866,-0.29282 -1.016919,-0.825999 -1.251221,-1.013786 -0.411563,-0.329859 -0.583827,-0.524459 -0.742483,-0.838756 -0.144161,-0.28558 -0.203358,-0.548056 -0.203358,-0.901674 0,-0.375675 0.06414,-0.636784 0.235647,-0.959333 0.192318,-0.361685 0.245702,-0.411415 1.75143,-1.631523 0.202999,-0.164492 0.556704,-0.451304 0.786009,-0.637358 0.229306,-0.186055 0.620505,-0.503045 0.86933,-0.704423 1.209804,-0.979113 1.454055,-1.177934 1.466597,-1.193814 0.03332,-0.04218 0.368751,-0.253836 0.480928,-0.303457 0.745486,-0.329764 1.615199,-0.187749 2.216667,0.361959 0.208721,0.19076 0.459268,0.578295 0.549189,0.849464 0.06719,0.202631 0.07293,0.257342 0.08115,0.774037 0.0049,0.305797 0.01171,0.696348 0.01522,0.867893 l 0.0064,0.311898 0.366142,0.04592 c 0.201378,0.02525 0.732284,0.09024 1.179791,0.144422 1.347699,0.163164 1.833131,0.292535 2.63835,0.70314 1.567912,0.799523 2.715756,2.233064 3.139256,3.920614 0.171825,0.684681 0.181891,0.801582 0.195481,2.270299 0.01346,1.454603 0.0099,1.497117 -0.141125,1.668679 -0.149644,0.170032 -0.442302,0.248653 -0.645206,0.173333 z"
       id="path3"
       inkscape:export-filename="svgs\return.svg"
       inkscape:export-xdpi="96"
       inkscape:export-ydpi="96" /><path
       style="fill:#000000"
       d="m 50.402041,38.109001 c -0.50405,-0.211937 -0.513028,-0.422148 -0.115342,-2.700352 0.196612,-1.126323 0.359424,-2.151982 0.361803,-2.279242 0.0033,-0.17541 -0.397616,-0.635581 -1.657257,-1.902294 -1.436407,-1.444472 -1.661582,-1.710852 -1.661582,-1.965631 0,-0.162095 0.07813,-0.391209 0.173629,-0.509142 0.155015,-0.191436 0.411237,-0.248555 2.390037,-0.532809 1.640852,-0.235707 2.265158,-0.361513 2.404136,-0.484465 0.103251,-0.09134 0.607848,-1.020608 1.121328,-2.065032 0.93688,-1.905625 1.162153,-2.231268 1.543543,-2.231268 0.417194,0 0.647546,0.321648 1.587443,2.216599 0.522037,1.052491 1.022495,1.987994 1.112129,2.078895 0.123425,0.12517 0.669408,0.235978 2.250064,0.456652 1.147901,0.160258 2.180968,0.329615 2.295704,0.376351 0.319539,0.130158 0.535959,0.521039 0.458768,0.828592 -0.04202,0.167428 -0.652101,0.829484 -1.694527,1.838896 -1.576856,1.526916 -1.628536,1.58907 -1.618566,1.946605 0.0057,0.203131 0.169773,1.277969 0.364687,2.388531 0.335672,1.912555 0.346082,2.031881 0.197109,2.259243 -0.182387,0.278358 -0.547264,0.442891 -0.787422,0.355071 -0.09184,-0.03358 -1.003135,-0.502376 -2.0251,-1.04176 -1.029617,-0.543422 -1.972435,-0.980698 -2.114501,-0.980698 -0.141418,0 -1.026793,0.408692 -1.974468,0.91142 -2.255295,1.196403 -2.242147,1.191188 -2.611615,1.035838 z"
       id="path4"
       inkscape:export-filename="svgs\favorite.svg"
       inkscape:export-xdpi="96"
       inkscape:export-ydpi="96" /><path
       style="fill:#000000"
       d="m 68.680252,38.3009 c -0.243124,-0.163841 -0.576095,-0.496812 -0.739936,-0.739936 l -0.297893,-0.442043 v -6.118777 -6.118777 l 0.294775,-0.433114 c 0.162127,-0.238213 0.461193,-0.556445 0.664591,-0.707183 0.365236,-0.270675 0.477977,-0.274557 9.105276,-0.313487 5.69365,-0.02569 8.89643,0.0073 9.19772,0.09482 0.25424,0.07383 0.66693,0.345361 0.91708,0.6034 l 0.45482,0.469163 0.0353,6.2486 c 0.0398,7.050606 0.0634,6.868134 -0.96598,7.458298 l -0.51041,0.29262 -8.85663,0.0022 -8.85663,0.0022 z m 3.940593,-2.977387 v -2.22719 h -0.40164 c -0.22091,0 -0.51568,-0.06103 -0.65506,-0.135621 -0.242295,-0.129672 -0.253409,-0.316407 -0.253409,-4.257863 v -4.122243 h -1.03858 c -1.692205,0 -1.581643,-0.447945 -1.581643,6.408065 0,5.039539 0.02497,5.753323 0.210534,6.018254 0.315695,0.450717 0.63311,0.526397 2.245925,0.535484 l 1.473873,0.0083 z m 5.07985,-0.03275 0.0359,-2.194437 h -0.45234 c -0.872,0 -0.8641,0.04082 -0.8641,-4.463738 v -4.051989 h -0.98259 -0.98258 v 4.122243 c 0,4.02468 -0.006,4.125652 -0.26918,4.266302 -0.14804,0.07923 -0.42808,0.125523 -0.6223,0.102868 l -0.35313,-0.04119 -0.0362,2.090919 c -0.0199,1.150006 -0.006,2.168412 0.0299,2.263124 0.0517,0.134816 0.54315,0.164402 2.2634,0.13627 l 2.19733,-0.03593 z m 5.13902,0.03275 v -2.22719 h -0.44918 c -0.8684,0 -0.86093,0.03875 -0.86093,-4.463738 v -4.051989 h -0.98258 -0.98259 v 4.122243 c 0,3.941456 -0.0111,4.128191 -0.2534,4.257863 -0.13938,0.07459 -0.43415,0.135621 -0.65506,0.135621 h -0.40165 v 2.139849 c 0,1.176917 0.0393,2.179153 0.0873,2.22719 0.048,0.04804 1.07975,0.08734 2.2927,0.08734 h 2.20535 z m 3.76172,2.089658 c 0.21699,-0.07564 0.46161,-0.284759 0.54359,-0.464704 0.10409,-0.22845 0.14907,-2.039602 0.14907,-6.002325 0,-6.807197 0.10974,-6.365546 -1.58164,-6.365546 h -1.03858 v 4.122243 c 0,3.941456 -0.0111,4.128191 -0.25341,4.257863 -0.13937,0.07459 -0.43415,0.135621 -0.65505,0.135621 h -0.40165 v 2.139849 c 0,1.176917 0.0393,2.179153 0.0873,2.22719 0.14109,0.141096 2.71944,0.100017 3.15033,-0.05019 z"
       id="path5"
       inkscape:export-filename="svgs\piano.svg"
       inkscape:export-xdpi="96"
       inkscape:export-ydpi="96" /><path
       style="fill:#000000;stroke-width:0.430928"
       d="m 92.297826,40.498708 c 0.02228,-0.02879 0.862391,-1.236929 1.866916,-2.684742 1.004522,-1.447812 2.155874,-3.106217 2.55855,-3.685342 0.402682,-0.579124 0.940854,-1.3534 1.195938,-1.720611 l 0.463788,-0.667656 -1.096827,-1.097268 -1.096828,-1.097268 0.28512,-0.198595 c 1.074842,-0.748651 2.060911,-1.433456 5.749597,-3.992977 2.28654,-1.586597 4.23887,-2.940409 4.33852,-3.00847 l 0.18117,-0.123747 -0.16606,0.234664 c -0.0913,0.129066 -0.59656,0.855544 -1.12273,1.614398 -1.24589,1.796913 -2.49564,3.596828 -3.79135,5.460404 l -1.04483,1.502749 1.09642,1.096859 1.09641,1.096858 -0.23023,0.163446 c -0.12663,0.08989 -0.81844,0.571367 -1.53736,1.069938 -3.48033,2.413635 -6.247365,4.334144 -6.608195,4.586533 -0.796672,0.557246 -2.070885,1.43974 -2.124063,1.471084 -0.04355,0.02566 -0.04634,0.02159 -0.01397,-0.02025 z"
       id="path6"
       inkscape:export-filename="svgs\thunder.svg"
       inkscape:export-xdpi="96"
       inkscape:export-ydpi="96" /><path
       style="fill:#000000;stroke-width:1.22118"
       d="m 118.02652,40.690794 c -0.40285,-0.144552 -0.53817,-0.202085 -0.89163,-0.379098 -1.62678,-0.814701 -2.74503,-2.154582 -3.16838,-3.796309 -0.26412,-1.024312 -0.30363,-1.94014 -0.13514,-3.133462 0.10148,-0.71874 0.2308,-1.167289 0.66539,-2.307675 0.34377,-0.902108 0.36908,-1.00147 0.37164,-1.459266 0.001,-0.319093 -0.004,-0.382096 -0.0507,-0.53167 -0.0291,-0.09332 -0.0774,-0.214233 -0.10746,-0.268685 -0.03,-0.05445 -0.0547,-0.102811 -0.0547,-0.107464 0,-0.01961 0.12758,-0.006 0.25692,0.02749 0.35367,0.09145 0.69855,0.306848 1.04568,0.653054 0.26451,0.263797 0.50136,0.582173 0.6824,0.917321 0.0571,0.105766 0.10844,0.197397 0.11393,0.203619 0.0188,0.02127 0.23515,-0.23731 0.3786,-0.452486 0.64277,-0.964126 0.94561,-2.273945 0.86911,-3.758937 -0.0288,-0.559539 -0.01,-0.875445 0.0816,-1.325173 0.26301,-1.300227 1.01896,-2.353722 2.14066,-2.983291 0.21451,-0.120395 0.68293,-0.33281 0.79709,-0.361466 l 0.0557,-0.01397 -0.0551,0.177329 c -0.1403,0.451789 -0.21673,1.00493 -0.21675,1.568721 -3e-5,0.778905 0.13091,1.383069 0.43394,2.002248 0.24102,0.492469 0.52769,0.858779 1.04065,1.329746 0.66835,0.613638 0.98787,1.008425 1.45542,1.798234 0.63489,1.072473 1.07568,2.402945 1.13901,3.437863 0.0134,0.218725 0.0172,0.232751 0.0629,0.232751 0.16394,0 0.49094,-0.284833 0.66516,-0.579384 0.24575,-0.415505 0.41802,-1.031036 0.50903,-1.818789 l 0.03,-0.26018 0.0823,0.177041 c 0.24188,0.520685 0.56062,1.410283 0.73631,2.055057 0.48706,1.787533 0.56085,3.405954 0.21745,4.770115 -0.33534,1.3322 -1.0866,2.416849 -2.22795,3.216695 -0.4235,0.296782 -1.06746,0.628845 -1.60633,0.828311 -0.4198,0.155398 -0.44017,0.158627 -0.26635,0.04223 0.81496,-0.545732 1.2907,-1.240597 1.48943,-2.175486 0.18258,-0.858846 0.0756,-1.988813 -0.29397,-3.104029 -0.0994,-0.300127 -0.25022,-0.688984 -0.31747,-0.81876 -0.0504,-0.09734 -0.0547,-0.08801 -0.0889,0.192751 -0.0746,0.613433 -0.30134,1.107696 -0.57473,1.252724 -0.0572,0.03033 -0.10868,0.05037 -0.1143,0.04452 -0.006,-0.0059 -0.0219,-0.107353 -0.036,-0.225564 -0.1038,-0.865598 -0.45637,-1.73542 -1.00159,-2.47075 -0.0763,-0.102872 -0.32273,-0.370423 -0.54768,-0.594557 -0.43484,-0.43326 -0.55159,-0.590937 -0.69068,-0.932711 -0.22677,-0.557244 -0.25852,-1.33316 -0.0794,-1.939304 0.0182,-0.06136 0.033,-0.121006 0.033,-0.132542 0,-0.05877 -0.41293,0.132626 -0.69612,0.322672 -0.52629,0.353171 -0.87883,0.866851 -1.05993,1.544408 -0.06,0.224553 -0.0623,0.253301 -0.0666,0.870264 -0.002,0.350922 -0.0122,0.707255 -0.0205,0.791849 -0.0432,0.413444 -0.16668,0.856808 -0.33182,1.191803 -0.10184,0.206573 -0.26239,0.454581 -0.34353,0.530641 l -0.0563,0.0528 -0.0801,-0.143305 c -0.15529,-0.277601 -0.41846,-0.584848 -0.62035,-0.72421 -0.12878,-0.08891 -0.35756,-0.193148 -0.46697,-0.212783 -0.0807,-0.0145 -0.087,-0.01209 -0.0709,0.02692 0.0923,0.22497 0.10856,0.301418 0.1077,0.506592 -10e-4,0.261623 -0.0339,0.387406 -0.24921,0.952238 -0.30526,0.801084 -0.40542,1.256697 -0.42732,1.943669 -0.0286,0.897262 0.17582,1.664516 0.61909,2.323882 0.24794,0.368817 0.73683,0.823748 1.12213,1.044195 0.0713,0.04077 0.12957,0.07847 0.12957,0.08378 0,0.01253 0.0311,0.02257 -0.31674,-0.102237 z"
       id="path7"
       inkscape:export-filename="svgs\fire.svg"
       inkscape:export-xdpi="96"
       inkscape:export-ydpi="96" /></g></svg>
