<?xml version="1.0" encoding="UTF-8" standalone="no"?>
<!-- Created with Inkscape (http://www.inkscape.org/) -->

<svg
   width="21.977226mm"
   height="27.966909mm"
   viewBox="0 0 21.977226 27.966909"
   version="1.1"
   id="svg1"
   inkscape:version="1.4 (86a8ad7, 2024-10-11)"
   sodipodi:docname="inomeado.svg"
   xml:space="preserve"
   inkscape:export-filename="..\vidacalma\CalmLife\public\svgs\bin.svg"
   inkscape:export-xdpi="96"
   inkscape:export-ydpi="96"
   xmlns:inkscape="http://www.inkscape.org/namespaces/inkscape"
   xmlns:sodipodi="http://sodipodi.sourceforge.net/DTD/sodipodi-0.dtd"
   xmlns="http://www.w3.org/2000/svg"
   xmlns:svg="http://www.w3.org/2000/svg"><sodipodi:namedview
     id="namedview1"
     pagecolor="#ffffff"
     bordercolor="#000000"
     borderopacity="0.25"
     inkscape:showpageshadow="2"
     inkscape:pageopacity="0.0"
     inkscape:pagecheckerboard="0"
     inkscape:deskcolor="#d1d1d1"
     inkscape:document-units="mm"
     inkscape:zoom="0.80000879"
     inkscape:cx="326.87141"
     inkscape:cy="228.12249"
     inkscape:window-width="1600"
     inkscape:window-height="837"
     inkscape:window-x="-8"
     inkscape:window-y="-8"
     inkscape:window-maximized="1"
     inkscape:current-layer="layer1"><inkscape:page
       x="0"
       y="0"
       width="21.977226"
       height="27.966909"
       id="page2"
       margin="0"
       bleed="0" /></sodipodi:namedview><defs
     id="defs1" /><g
     inkscape:label="Camada 1"
     inkscape:groupmode="layer"
     id="layer1"
     transform="translate(-107.59875,-39.149537)"><path
       style="fill:#000000;stroke-width:0.18076"
       d="m 113.30895,67.103238 c -1.13363,-0.0719 -2.21846,-0.57416 -3.01244,-1.3948 -0.69013,-0.71329 -1.12847,-1.61316 -1.26023,-2.58715 -0.0254,-0.18745 -0.0497,-0.60012 -0.0521,-0.88514 -9.1e-4,-0.10142 -0.0147,-0.84162 -0.0307,-1.64488 -0.0472,-2.3692 -0.1,-5.02043 -0.1395,-6.99998 -0.0203,-1.01828 -0.0533,-2.69783 -0.0732,-3.73233 -0.0199,-1.03451 -0.0397,-1.97386 -0.0438,-2.08745 -0.004,-0.1136 -0.008,-0.26673 -0.008,-0.3403 l -3.6e-4,-0.13377 -0.0848,-0.0262 c -0.17332,-0.0535 -0.39429,-0.19358 -0.52933,-0.33556 -0.14416,-0.15158 -0.23529,-0.30728 -0.3095,-0.52878 l -0.042,-0.1254 -0.005,-0.54215 -0.005,-0.54214 h 10.87423 10.87426 l -0.005,0.54214 -0.005,0.54215 -0.0418,0.1254 c -0.0737,0.22101 -0.16501,0.37704 -0.30933,0.52878 -0.13504,0.14198 -0.356,0.28206 -0.52933,0.33556 l -0.0848,0.0262 -3.6e-4,0.14114 c -1.8e-4,0.0776 -0.004,0.23077 -0.008,0.3403 -0.004,0.10954 -0.0238,1.04557 -0.0438,2.08008 -0.02,1.0345 -0.053,2.71405 -0.0733,3.73233 -0.0395,1.97955 -0.0924,4.63078 -0.1395,6.99998 -0.016,0.80326 -0.0298,1.54346 -0.0307,1.64488 -0.006,0.6889 -0.0744,1.18673 -0.22952,1.66836 -0.54263,1.68519 -1.98689,2.90605 -3.74104,3.16237 -0.0867,0.0127 -0.26929,0.0294 -0.40569,0.0372 -0.29834,0.017 -10.23666,0.0162 -10.50525,-7.2e-4 z m 0.43196,-5.18447 c 0.25751,-0.0546 0.45446,-0.22911 0.53788,-0.47677 l 0.0303,-0.0901 v -5.62716 c 0,-5.48133 -7.2e-4,-5.62948 -0.0279,-5.71696 -0.0358,-0.11499 -0.10013,-0.21471 -0.19866,-0.3079 -0.37943,-0.35885 -1.00418,-0.18704 -1.16063,0.31918 -0.0286,0.0925 -0.029,0.16951 -0.029,5.69498 0,4.98472 0.002,5.61078 0.0226,5.68805 0.079,0.30348 0.36062,0.52406 0.68549,0.53699 0.0203,7.2e-4 0.0832,-0.008 0.13989,-0.0203 z m 5.05711,-0.0169 c 0.18432,-0.0542 0.34029,-0.19291 0.43516,-0.38696 l 0.0549,-0.11223 v -5.68075 -5.68075 l -0.0626,-0.12626 c -0.26755,-0.53993 -1.0088,-0.53993 -1.27635,0 l -0.0626,0.12626 v 5.68075 5.68075 l 0.0549,0.11223 c 0.10134,0.20729 0.25865,0.3398 0.4714,0.39708 0.12113,0.0326 0.25154,0.0292 0.38519,-0.0101 z m 4.87883,0.0239 c 0.27816,-0.0441 0.51215,-0.25448 0.58223,-0.52356 0.0201,-0.0773 0.0226,-0.70322 0.0226,-5.68692 0,-5.10713 -0.002,-5.60716 -0.0238,-5.68023 -0.0347,-0.11695 -0.0828,-0.20437 -0.15931,-0.28946 -0.26538,-0.29516 -0.72083,-0.31579 -1.00653,-0.0456 -0.0985,0.0932 -0.16287,0.1929 -0.19866,0.30789 -0.0272,0.0875 -0.0279,0.23563 -0.0279,5.71696 v 5.62716 l 0.0303,0.0901 c 0.0823,0.24434 0.28019,0.42173 0.53112,0.47614 0.11879,0.0258 0.13232,0.0262 0.24992,0.008 z m -15.87333,-17.51507 c -0.0747,-0.0238 -0.16785,-0.12323 -0.19017,-0.20296 -0.0142,-0.0507 -0.0172,-0.2311 -0.0126,-0.75926 0.006,-0.65099 0.008,-0.69965 0.0374,-0.807 0.13708,-0.49803 0.50865,-0.8556 1.02047,-0.98201 0.086,-0.0212 0.36702,-0.0246 2.63031,-0.0317 l 2.53407,-0.008 0.0736,-0.22129 c 0.42329,-1.27199 1.55283,-2.14329 2.89762,-2.23514 0.26968,-0.0184 3.31637,-0.0184 3.58605,0 0.8049,0.055 1.53656,0.3842 2.10007,0.94496 0.36695,0.36516 0.63289,0.79536 0.79755,1.29018 l 0.0736,0.22129 2.53407,0.008 c 2.26126,0.007 2.54442,0.0106 2.63031,0.0317 0.51155,0.12612 0.88339,0.48393 1.02047,0.98197 0.0296,0.10735 0.0318,0.15601 0.0374,0.807 0.005,0.52815 0.002,0.70856 -0.0126,0.75926 -0.0236,0.0842 -0.11656,0.17956 -0.1991,0.20422 -0.0837,0.025 -21.48009,0.0238 -21.55864,-10e-4 z m 14.30959,-2.79527 c 0,-0.0259 -0.1401,-0.28179 -0.21137,-0.38613 -0.0417,-0.0611 -0.15232,-0.18803 -0.24574,-0.28206 -0.32496,-0.32709 -0.68093,-0.51418 -1.12221,-0.58983 -0.16477,-0.0282 -0.23192,-0.0291 -2.00632,-0.0245 -2.04077,0.005 -1.87696,-0.003 -2.20701,0.10688 -0.30886,0.10256 -0.55319,0.25719 -0.80185,0.50748 -0.0934,0.094 -0.20401,0.22096 -0.24574,0.28206 -0.0713,0.10434 -0.21137,0.36027 -0.21137,0.38613 0,0.006 1.58661,0.0117 3.5258,0.0117 1.9392,0 3.52581,-0.005 3.52581,-0.0117 z"
       id="path148" /></g></svg>
