<?xml version="1.0" encoding="UTF-8" standalone="no"?>
<!-- Created with Inkscape (http://www.inkscape.org/) -->

<svg
   width="6.521822mm"
   height="5.0151677mm"
   viewBox="0 0 6.521822 5.0151677"
   version="1.1"
   id="svg1"
   xml:space="preserve"
   inkscape:version="1.3.2 (091e20e, 2023-11-25, custom)"
   sodipodi:docname="vectors.svg"
   xmlns:inkscape="http://www.inkscape.org/namespaces/inkscape"
   xmlns:sodipodi="http://sodipodi.sourceforge.net/DTD/sodipodi-0.dtd"
   xmlns="http://www.w3.org/2000/svg"
   xmlns:svg="http://www.w3.org/2000/svg"><sodipodi:namedview
     id="namedview1"
     pagecolor="#ffffff"
     bordercolor="#000000"
     borderopacity="0.25"
     inkscape:showpageshadow="2"
     inkscape:pageopacity="0.0"
     inkscape:pagecheckerboard="0"
     inkscape:deskcolor="#d1d1d1"
     inkscape:document-units="mm"
     inkscape:zoom="3.2302717"
     inkscape:cx="71.201441"
     inkscape:cy="74.761513"
     inkscape:window-width="1600"
     inkscape:window-height="837"
     inkscape:window-x="-8"
     inkscape:window-y="-8"
     inkscape:window-maximized="1"
     inkscape:current-layer="layer1"
     showgrid="false" /><defs
     id="defs1" /><g
     inkscape:label="Camada 1"
     inkscape:groupmode="layer"
     id="layer1"
     transform="translate(-25.955845,-17.067758)"><path
       style="fill:#000000;stroke-width:0.556532"
       d="m 26.607733,22.027397 c -0.04428,-0.04893 -0.05096,-0.110991 -0.05618,-0.522023 -0.0058,-0.45311 -0.01146,-0.495662 -0.198931,-1.48342 -0.464943,-2.449699 -0.419777,-2.167964 -0.360368,-2.247888 0.0355,-0.04776 0.08249,-0.07314 0.14478,-0.0782 0.0803,-0.0065 0.202553,0.06615 0.945649,0.562135 0.469387,0.313294 0.860849,0.560727 0.869917,0.549853 0.0091,-0.01087 0.265305,-0.394644 0.569419,-0.85282 0.595331,-0.896923 0.635427,-0.940964 0.782081,-0.859031 0.04273,0.02387 0.292859,0.372977 0.63008,0.879391 0.307575,0.461893 0.569942,0.837014 0.583039,0.833603 0.01309,-0.0034 0.398843,-0.256627 0.857215,-0.562701 0.885827,-0.591505 0.937585,-0.615983 1.054745,-0.498823 0.04864,0.04864 0.05541,0.07943 0.04319,0.196606 -0.01261,0.120919 -0.200739,1.102685 -0.522492,2.726646 -0.08281,0.417959 -0.09362,0.521866 -0.09362,0.900139 0,0.411167 -0.0023,0.429263 -0.06027,0.469852 -0.05351,0.03748 -0.345154,0.04221 -2.599135,0.04221 -2.524193,0 -2.539156,-3.21e-4 -2.589122,-0.05554 z m 4.841755,-0.554624 v -0.203386 h -0.691512 c -0.655354,0 -0.694347,-0.0028 -0.745747,-0.05423 -0.08075,-0.08075 -0.07232,-0.225906 0.01721,-0.296331 0.06809,-0.05356 0.104352,-0.0562 0.770712,-0.0562 h 0.699259 l 0.01495,-0.07457 c 0.0082,-0.04102 0.11314,-0.581006 0.233152,-1.199976 0.120011,-0.618971 0.224315,-1.152859 0.231786,-1.186418 0.0075,-0.03356 0.0077,-0.06102 5.06e-4,-0.06102 -0.0072,0 -0.327758,0.209557 -0.712368,0.465683 -0.384609,0.256125 -0.731616,0.477992 -0.771127,0.493038 -0.05611,0.02136 -0.08759,0.01703 -0.143766,-0.01977 -0.03956,-0.02592 -0.303855,-0.397277 -0.587322,-0.825235 -0.283467,-0.427958 -0.525483,-0.781701 -0.537815,-0.786095 -0.01233,-0.0044 -0.261564,0.351993 -0.553852,0.791971 -0.292287,0.439978 -0.555271,0.812718 -0.584408,0.828311 -0.02914,0.01559 -0.07513,0.02834 -0.102216,0.02833 -0.02708,-10e-6 -0.378724,-0.219648 -0.781428,-0.488085 -0.402702,-0.268438 -0.735793,-0.477268 -0.740201,-0.464067 -0.0061,0.01817 0.352195,1.971162 0.444541,2.423327 l 0.01523,0.07458 h 0.70164 c 0.743763,0 0.810832,0.0098 0.86391,0.126297 0.04457,0.09782 0.03737,0.140089 -0.03645,0.213911 l -0.06656,0.06656 h -0.706303 -0.706304 v 0.203386 0.203386 h 2.237244 2.237243 z m -2.354162,-0.258678 c -0.08605,-0.08016 -0.0802,-0.222667 0.0121,-0.295275 0.08151,-0.06412 0.116099,-0.06843 0.209021,-0.0261 0.06621,0.03016 0.126298,0.126707 0.126298,0.202904 0,0.06889 -0.127107,0.173759 -0.210599,0.173759 -0.04261,0 -0.104181,-0.02488 -0.136823,-0.05529 z"
       id="path25" /></g></svg>
