<?xml version="1.0" encoding="UTF-8" standalone="no"?>
<!-- Created with Inkscape (http://www.inkscape.org/) -->

<svg
   width="9.7838573mm"
   height="13.391796mm"
   viewBox="0 0 9.7838573 13.391796"
   version="1.1"
   id="svg1"
   xml:space="preserve"
   inkscape:version="1.3.2 (091e20e, 2023-11-25, custom)"
   sodipodi:docname="vectors.svg"
   xmlns:inkscape="http://www.inkscape.org/namespaces/inkscape"
   xmlns:sodipodi="http://sodipodi.sourceforge.net/DTD/sodipodi-0.dtd"
   xmlns="http://www.w3.org/2000/svg"
   xmlns:svg="http://www.w3.org/2000/svg"><sodipodi:namedview
     id="namedview1"
     pagecolor="#ffffff"
     bordercolor="#000000"
     borderopacity="0.25"
     inkscape:showpageshadow="2"
     inkscape:pageopacity="0.0"
     inkscape:pagecheckerboard="0"
     inkscape:deskcolor="#d1d1d1"
     inkscape:document-units="mm"
     inkscape:zoom="0.20189198"
     inkscape:cx="138.68802"
     inkscape:cy="512.65037"
     inkscape:window-width="1600"
     inkscape:window-height="837"
     inkscape:window-x="-8"
     inkscape:window-y="-8"
     inkscape:window-maximized="1"
     inkscape:current-layer="layer1" /><defs
     id="defs1" /><g
     inkscape:label="Camada 1"
     inkscape:groupmode="layer"
     id="layer1"
     transform="translate(-7.7485954,-24.233047)"><path
       style="fill:#000000"
       d="m 11.533543,37.493909 c -1.7596595,-0.426316 -3.2042145,-1.8117 -3.6552195,-3.505496 -0.175673,-0.659759 -0.1724,-2.128568 0.0066,-2.979696 0.364433,-1.732455 1.163634,-3.233082 2.6401895,-4.957376 0.628631,-0.734104 1.892391,-1.818294 2.119451,-1.818294 0.246944,0 2.17996,1.874999 2.81126,2.726884 1.353951,1.82704 2.079513,3.810868 2.076621,5.677887 -0.0022,1.391183 -0.459083,2.524448 -1.407677,3.491292 -1.221541,1.245041 -2.956651,1.76082 -4.591265,1.364799 z m 3.29786,-5.041824 c 0.820357,-0.385613 1.331443,-1.182027 1.331443,-2.074756 0,-0.479453 -0.232579,-1.062903 -0.809963,-2.031878 -0.627361,-1.052848 -2.424439,-3.035346 -2.751454,-3.035346 -0.183744,0 -1.820672,1.71716 -2.333487,2.44786 -0.245666,0.350043 -0.6066035,0.955936 -0.8020825,1.346428 -0.356901,0.71295 -0.90936,2.43793 -0.811983,2.535307 0.02865,0.02865 0.178172,-0.04114 0.332282,-0.155076 0.672079,-0.49689 1.4357485,-0.385603 2.4000505,0.349752 1.017458,0.77589 1.447896,0.932097 2.393765,0.868702 0.33374,-0.02237 0.803737,-0.134564 1.051429,-0.250993 z"
       id="path2" /></g></svg>
