<?xml version="1.0" encoding="UTF-8" standalone="no"?>
<!-- Created with Inkscape (http://www.inkscape.org/) -->

<svg
   width="15.352466mm"
   height="14.769145mm"
   viewBox="0 0 15.352466 14.769145"
   version="1.1"
   id="svg1"
   xml:space="preserve"
   inkscape:version="1.3.2 (091e20e, 2023-11-25, custom)"
   sodipodi:docname="vectors.svg"
   xmlns:inkscape="http://www.inkscape.org/namespaces/inkscape"
   xmlns:sodipodi="http://sodipodi.sourceforge.net/DTD/sodipodi-0.dtd"
   xmlns="http://www.w3.org/2000/svg"
   xmlns:svg="http://www.w3.org/2000/svg"><sodipodi:namedview
     id="namedview1"
     pagecolor="#ffffff"
     bordercolor="#000000"
     borderopacity="0.25"
     inkscape:showpageshadow="2"
     inkscape:pageopacity="0.0"
     inkscape:pagecheckerboard="0"
     inkscape:deskcolor="#d1d1d1"
     inkscape:document-units="mm"
     inkscape:zoom="1.1420735"
     inkscape:cx="28.019212"
     inkscape:cy="145.78746"
     inkscape:window-width="1600"
     inkscape:window-height="837"
     inkscape:window-x="-8"
     inkscape:window-y="-8"
     inkscape:window-maximized="1"
     inkscape:current-layer="layer1" /><defs
     id="defs1" /><g
     inkscape:label="Camada 1"
     inkscape:groupmode="layer"
     id="layer1"
     transform="translate(-47.32966,-23.438766)"><path
       style="fill:#000000"
       d="m 50.402041,38.109001 c -0.50405,-0.211937 -0.513028,-0.422148 -0.115342,-2.700352 0.196612,-1.126323 0.359424,-2.151982 0.361803,-2.279242 0.0033,-0.17541 -0.397616,-0.635581 -1.657257,-1.902294 -1.436407,-1.444472 -1.661582,-1.710852 -1.661582,-1.965631 0,-0.162095 0.07813,-0.391209 0.173629,-0.509142 0.155015,-0.191436 0.411237,-0.248555 2.390037,-0.532809 1.640852,-0.235707 2.265158,-0.361513 2.404136,-0.484465 0.103251,-0.09134 0.607848,-1.020608 1.121328,-2.065032 0.93688,-1.905625 1.162153,-2.231268 1.543543,-2.231268 0.417194,0 0.647546,0.321648 1.587443,2.216599 0.522037,1.052491 1.022495,1.987994 1.112129,2.078895 0.123425,0.12517 0.669408,0.235978 2.250064,0.456652 1.147901,0.160258 2.180968,0.329615 2.295704,0.376351 0.319539,0.130158 0.535959,0.521039 0.458768,0.828592 -0.04202,0.167428 -0.652101,0.829484 -1.694527,1.838896 -1.576856,1.526916 -1.628536,1.58907 -1.618566,1.946605 0.0057,0.203131 0.169773,1.277969 0.364687,2.388531 0.335672,1.912555 0.346082,2.031881 0.197109,2.259243 -0.182387,0.278358 -0.547264,0.442891 -0.787422,0.355071 -0.09184,-0.03358 -1.003135,-0.502376 -2.0251,-1.04176 -1.029617,-0.543422 -1.972435,-0.980698 -2.114501,-0.980698 -0.141418,0 -1.026793,0.408692 -1.974468,0.91142 -2.255295,1.196403 -2.242147,1.191188 -2.611615,1.035838 z"
       id="path4" /></g></svg>
