<?xml version="1.0" encoding="UTF-8" standalone="no"?>
<!-- Created with Inkscape (http://www.inkscape.org/) -->

<svg
   width="13.659736mm"
   height="19.186739mm"
   viewBox="0 0 13.659736 19.186739"
   version="1.1"
   id="svg1"
   xml:space="preserve"
   inkscape:version="1.3.2 (091e20e, 2023-11-25, custom)"
   sodipodi:docname="vectors.svg"
   xmlns:inkscape="http://www.inkscape.org/namespaces/inkscape"
   xmlns:sodipodi="http://sodipodi.sourceforge.net/DTD/sodipodi-0.dtd"
   xmlns="http://www.w3.org/2000/svg"
   xmlns:svg="http://www.w3.org/2000/svg"><sodipodi:namedview
     id="namedview1"
     pagecolor="#ffffff"
     bordercolor="#000000"
     borderopacity="0.25"
     inkscape:showpageshadow="2"
     inkscape:pageopacity="0.0"
     inkscape:pagecheckerboard="0"
     inkscape:deskcolor="#d1d1d1"
     inkscape:document-units="mm"
     inkscape:zoom="1.1420735"
     inkscape:cx="28.019212"
     inkscape:cy="145.78746"
     inkscape:window-width="1600"
     inkscape:window-height="837"
     inkscape:window-x="-8"
     inkscape:window-y="-8"
     inkscape:window-maximized="1"
     inkscape:current-layer="layer1" /><defs
     id="defs1" /><g
     inkscape:label="Camada 1"
     inkscape:groupmode="layer"
     id="layer1"
     transform="translate(-113.73008,-21.613326)"><path
       style="fill:#000000;stroke-width:1.22118"
       d="m 118.02652,40.690794 c -0.40285,-0.144552 -0.53817,-0.202085 -0.89163,-0.379098 -1.62678,-0.814701 -2.74503,-2.154582 -3.16838,-3.796309 -0.26412,-1.024312 -0.30363,-1.94014 -0.13514,-3.133462 0.10148,-0.71874 0.2308,-1.167289 0.66539,-2.307675 0.34377,-0.902108 0.36908,-1.00147 0.37164,-1.459266 0.001,-0.319093 -0.004,-0.382096 -0.0507,-0.53167 -0.0291,-0.09332 -0.0774,-0.214233 -0.10746,-0.268685 -0.03,-0.05445 -0.0547,-0.102811 -0.0547,-0.107464 0,-0.01961 0.12758,-0.006 0.25692,0.02749 0.35367,0.09145 0.69855,0.306848 1.04568,0.653054 0.26451,0.263797 0.50136,0.582173 0.6824,0.917321 0.0571,0.105766 0.10844,0.197397 0.11393,0.203619 0.0188,0.02127 0.23515,-0.23731 0.3786,-0.452486 0.64277,-0.964126 0.94561,-2.273945 0.86911,-3.758937 -0.0288,-0.559539 -0.01,-0.875445 0.0816,-1.325173 0.26301,-1.300227 1.01896,-2.353722 2.14066,-2.983291 0.21451,-0.120395 0.68293,-0.33281 0.79709,-0.361466 l 0.0557,-0.01397 -0.0551,0.177329 c -0.1403,0.451789 -0.21673,1.00493 -0.21675,1.568721 -3e-5,0.778905 0.13091,1.383069 0.43394,2.002248 0.24102,0.492469 0.52769,0.858779 1.04065,1.329746 0.66835,0.613638 0.98787,1.008425 1.45542,1.798234 0.63489,1.072473 1.07568,2.402945 1.13901,3.437863 0.0134,0.218725 0.0172,0.232751 0.0629,0.232751 0.16394,0 0.49094,-0.284833 0.66516,-0.579384 0.24575,-0.415505 0.41802,-1.031036 0.50903,-1.818789 l 0.03,-0.26018 0.0823,0.177041 c 0.24188,0.520685 0.56062,1.410283 0.73631,2.055057 0.48706,1.787533 0.56085,3.405954 0.21745,4.770115 -0.33534,1.3322 -1.0866,2.416849 -2.22795,3.216695 -0.4235,0.296782 -1.06746,0.628845 -1.60633,0.828311 -0.4198,0.155398 -0.44017,0.158627 -0.26635,0.04223 0.81496,-0.545732 1.2907,-1.240597 1.48943,-2.175486 0.18258,-0.858846 0.0756,-1.988813 -0.29397,-3.104029 -0.0994,-0.300127 -0.25022,-0.688984 -0.31747,-0.81876 -0.0504,-0.09734 -0.0547,-0.08801 -0.0889,0.192751 -0.0746,0.613433 -0.30134,1.107696 -0.57473,1.252724 -0.0572,0.03033 -0.10868,0.05037 -0.1143,0.04452 -0.006,-0.0059 -0.0219,-0.107353 -0.036,-0.225564 -0.1038,-0.865598 -0.45637,-1.73542 -1.00159,-2.47075 -0.0763,-0.102872 -0.32273,-0.370423 -0.54768,-0.594557 -0.43484,-0.43326 -0.55159,-0.590937 -0.69068,-0.932711 -0.22677,-0.557244 -0.25852,-1.33316 -0.0794,-1.939304 0.0182,-0.06136 0.033,-0.121006 0.033,-0.132542 0,-0.05877 -0.41293,0.132626 -0.69612,0.322672 -0.52629,0.353171 -0.87883,0.866851 -1.05993,1.544408 -0.06,0.224553 -0.0623,0.253301 -0.0666,0.870264 -0.002,0.350922 -0.0122,0.707255 -0.0205,0.791849 -0.0432,0.413444 -0.16668,0.856808 -0.33182,1.191803 -0.10184,0.206573 -0.26239,0.454581 -0.34353,0.530641 l -0.0563,0.0528 -0.0801,-0.143305 c -0.15529,-0.277601 -0.41846,-0.584848 -0.62035,-0.72421 -0.12878,-0.08891 -0.35756,-0.193148 -0.46697,-0.212783 -0.0807,-0.0145 -0.087,-0.01209 -0.0709,0.02692 0.0923,0.22497 0.10856,0.301418 0.1077,0.506592 -10e-4,0.261623 -0.0339,0.387406 -0.24921,0.952238 -0.30526,0.801084 -0.40542,1.256697 -0.42732,1.943669 -0.0286,0.897262 0.17582,1.664516 0.61909,2.323882 0.24794,0.368817 0.73683,0.823748 1.12213,1.044195 0.0713,0.04077 0.12957,0.07847 0.12957,0.08378 0,0.01253 0.0311,0.02257 -0.31674,-0.102237 z"
       id="path7" /></g></svg>
