<?xml version="1.0" encoding="UTF-8" standalone="no"?>
<!-- Created with Inkscape (http://www.inkscape.org/) -->

<svg
   width="9.6652002mm"
   height="11.170346mm"
   viewBox="0 0 9.6652002 11.170346"
   version="1.1"
   id="svg1"
   xml:space="preserve"
   xmlns:inkscape="http://www.inkscape.org/namespaces/inkscape"
   xmlns:sodipodi="http://sodipodi.sourceforge.net/DTD/sodipodi-0.dtd"
   xmlns="http://www.w3.org/2000/svg"
   xmlns:svg="http://www.w3.org/2000/svg"><sodipodi:namedview
     id="namedview1"
     pagecolor="#ffffff"
     bordercolor="#000000"
     borderopacity="0.25"
     inkscape:showpageshadow="2"
     inkscape:pageopacity="0.0"
     inkscape:pagecheckerboard="0"
     inkscape:deskcolor="#d1d1d1"
     inkscape:document-units="mm" /><defs
     id="defs1" /><g
     inkscape:label="Camada 1"
     inkscape:groupmode="layer"
     id="layer1"
     transform="translate(-7.6263978,-23.695489)"><path
       style="fill:#000000;stroke-width:0.9226"
       d="M 8.8410509,34.813533 C 8.2852839,34.675822 7.8571448,34.275453 7.6950818,33.741899 7.6227776,33.503841 7.6206464,33.402081 7.6308227,30.665403 l 0.010518,-2.830295 0.1211725,-0.24286 c 0.066649,-0.133573 0.1763061,-0.305087 0.2436919,-0.381144 0.067387,-0.07606 0.8985868,-0.816506 1.8471122,-1.645444 1.8318547,-1.6009 1.9439387,-1.683164 2.3863567,-1.751457 0.305027,-0.04708 0.668208,0.0072 0.94228,0.140753 0.130732,0.06372 0.381137,0.245845 0.57044,0.414891 l 0.337421,0.301314 0.02079,-0.273005 c 0.02378,-0.312403 0.05609,-0.386234 0.239418,-0.547198 0.172893,-0.151803 0.267612,-0.165782 1.02192,-0.150823 0.630232,0.0125 0.637209,0.01356 0.773577,0.117652 0.269309,0.205567 0.26746,0.194743 0.279854,1.638299 l 0.01111,1.293444 0.29687,0.283512 c 0.226777,0.216573 0.325951,0.344925 0.420042,0.543621 l 0.123173,0.26011 0.01052,2.829463 c 0.01025,2.756404 0.0086,2.835963 -0.06596,3.081223 -0.16193,0.533118 -0.632314,0.957657 -1.19299,1.076713 -0.255723,0.0543 -1.728188,0.05603 -1.87027,0.0022 -0.150084,-0.05687 -0.273283,-0.180173 -0.353356,-0.353668 -0.06429,-0.139287 -0.06927,-0.281435 -0.07003,-1.996402 l -8.24e-4,-1.846439 H 12.45896 11.184263 v 1.83827 c 0,1.577095 -0.0083,1.858072 -0.05823,1.977657 -0.07975,0.190916 -0.230145,0.338829 -0.389536,0.383108 -0.192574,0.0535 -1.6657206,0.04155 -1.8954333,-0.01536 z m 1.7066701,-2.430961 c 7.63e-4,-1.711304 0.0059,-1.857414 0.06968,-1.996403 0.08439,-0.183786 0.180706,-0.272709 0.367529,-0.339339 0.206984,-0.07382 2.741033,-0.07382 2.948017,0 0.186823,0.06663 0.283133,0.155553 0.367528,0.339339 0.06383,0.138989 0.06893,0.285099 0.06968,1.996403 l 8.23e-4,1.846438 0.777941,-8.23e-4 c 0.701386,-7.43e-4 0.794543,-0.0083 0.946651,-0.07719 0.219108,-0.09918 0.358353,-0.23383 0.481508,-0.465606 l 0.0996,-0.187456 v -2.718107 c 0,-2.18491 -0.0099,-2.747524 -0.05069,-2.868071 -0.0363,-0.107384 -0.161374,-0.257557 -0.440521,-0.528902 l -0.389833,-0.378938 v -1.336281 -1.336281 h -0.524876 -0.524876 v 0.519281 c 0,0.707109 -0.05182,0.831917 -0.344328,0.829277 -0.106364,-9.23e-4 -0.214765,-0.08143 -0.750856,-0.557416 -0.344601,-0.305962 -0.690456,-0.587665 -0.768569,-0.626005 -0.200657,-0.09849 -0.617981,-0.09533 -0.808849,0.0061 -0.199739,0.106171 -3.5756885,3.072841 -3.6853654,3.238574 -0.049599,0.07494 -0.1077772,0.231475 -0.1292885,0.347841 -0.025445,0.13767 -0.035326,1.119307 -0.028287,2.810239 l 0.010831,2.598665 0.099605,0.187456 c 0.1231542,0.231776 0.2624004,0.366423 0.4815078,0.465606 0.1521082,0.06885 0.2452659,0.07645 0.9466515,0.07719 l 0.7779406,8.23e-4 z"
       id="path3" /></g></svg>
