<?xml version="1.0" encoding="UTF-8" standalone="no"?>
<!-- Created with Inkscape (http://www.inkscape.org/) -->

<svg
   width="8.1762285mm"
   height="13.572605mm"
   viewBox="0 0 8.1762285 13.572605"
   version="1.1"
   id="svg1"
   xml:space="preserve"
   inkscape:version="1.3.2 (091e20e, 2023-11-25, custom)"
   sodipodi:docname="icons.svg"
   xmlns:inkscape="http://www.inkscape.org/namespaces/inkscape"
   xmlns:sodipodi="http://sodipodi.sourceforge.net/DTD/sodipodi-0.dtd"
   xmlns="http://www.w3.org/2000/svg"
   xmlns:svg="http://www.w3.org/2000/svg"><sodipodi:namedview
     id="namedview1"
     pagecolor="#ffffff"
     bordercolor="#000000"
     borderopacity="0.25"
     inkscape:showpageshadow="2"
     inkscape:pageopacity="0.0"
     inkscape:pagecheckerboard="0"
     inkscape:deskcolor="#d1d1d1"
     inkscape:document-units="mm"
     inkscape:zoom="4.568294"
     inkscape:cx="244.83976"
     inkscape:cy="39.949268"
     inkscape:window-width="1600"
     inkscape:window-height="837"
     inkscape:window-x="-8"
     inkscape:window-y="-8"
     inkscape:window-maximized="1"
     inkscape:current-layer="layer1" /><defs
     id="defs1" /><g
     inkscape:label="Camada 1"
     inkscape:groupmode="layer"
     id="layer1"
     transform="translate(-55.657865,-2.0669255)"><path
       id="path1"
       style="fill:#000000;stroke-width:0.283956"
       d="m 59.783431,2.0670573 c -1.790584,-0.013766 -3.318617,1.0526695 -3.932577,2.7450521 -0.170587,0.4702216 -0.195853,0.6567348 -0.192753,1.4061157 0.0031,0.7514932 0.0296,0.9308963 0.203089,1.3751099 0.109701,0.2808928 0.367213,0.7540078 0.572575,1.0516154 0.502561,0.7283045 0.805987,1.4005886 0.993737,2.2024496 0.08598,0.36719 0.170199,0.714372 0.187069,0.771529 0.02254,0.07631 0.114919,0.09286 0.348299,0.06201 0.1748,-0.02311 1.061867,-0.115102 1.970939,-0.204122 0.909072,-0.08902 1.72471,-0.190409 1.81281,-0.225309 0.114932,-0.04553 0.186457,-0.17651 0.252697,-0.463538 0.123702,-0.536045 0.663796,-1.6314569 1.122929,-2.2778971 C 63.663051,7.7486454 63.84193,7.1432644 63.83383,6.1055705 63.828463,5.4216694 63.795733,5.1949491 63.643144,4.7898885 63.014343,3.1206847 61.539937,2.0805613 59.783431,2.0670573 Z m 1.72961,9.5379187 c -0.0021,9.1e-5 -0.0072,4.22e-4 -0.0093,5.17e-4 0.0079,-3.49e-4 0.01521,-2.25e-4 0.02274,-5.17e-4 -0.0053,2.06e-4 -0.008,-2.34e-4 -0.01344,0 z m -0.587044,0.04599 c -0.06312,0.0059 -0.150019,0.0146 -0.222209,0.0217 0.07825,-0.0077 0.154464,-0.01535 0.222209,-0.0217 z m 0.82734,0.553455 c -0.03734,0.04918 -0.07081,0.09579 -0.09147,0.127641 0.02066,-0.03186 0.05402,-0.07848 0.09147,-0.127641 z m -4.263306,0.249597 c 0.01006,0 0.02311,0.0062 0.03772,0.01757 -0.01461,-0.01138 -0.02766,-0.01757 -0.03772,-0.01757 z m 0.03772,0.01757 c 0.01461,0.01134 0.03096,0.02782 0.04806,0.04806 -0.01709,-0.02029 -0.03345,-0.03668 -0.04806,-0.04806 z m 0.04806,0.04806 c 0.0171,0.02024 0.03467,0.04462 0.05219,0.07131 -0.01751,-0.02674 -0.0351,-0.05102 -0.05219,-0.07131 z m 0.05219,0.07131 c 0.01752,0.0267 0.03476,0.05611 0.05064,0.08682 -0.01588,-0.03071 -0.03313,-0.06008 -0.05064,-0.08682 z m 4.071586,0.120923 c 0.0019,5.64e-4 0.0038,9.4e-4 0.0057,0.0015 -0.0018,-5.85e-4 -0.0039,-10e-4 -0.0057,-0.0015 z m -0.225826,0.0015 c -0.144624,0.02171 -1.040182,0.128241 -1.990576,0.236678 0.950393,-0.108437 1.845952,-0.214966 1.990576,-0.236678 z m 0.296106,0.03669 c 0.0013,0.0011 0.0024,0.0025 0.0036,0.0036 -0.0012,-0.0011 -0.0024,-0.0025 -0.0036,-0.0036 z m -3.127974,0.03566 c -0.343641,0.04101 -0.585243,0.07113 -0.641822,0.08061 0.05658,-0.0095 0.298142,-0.03955 0.641822,-0.08061 z m 0.283186,0.232027 c -0.07448,0.0095 -0.144211,0.01807 -0.214457,0.02739 0.06947,-0.0092 0.140879,-0.01807 0.214457,-0.02739 z m -1.350821,0.356051 c -6.48e-4,0.0045 -0.0011,0.0089 -0.0016,0.01344 4e-4,-0.0045 9.09e-4,-0.009 0.0016,-0.01344 z m 3.867464,0.207739 c -0.0243,9.6e-5 -0.198868,0.02018 -0.439767,0.04909 0.224374,-0.02683 0.416485,-0.049 0.439767,-0.04909 z m -3.785816,0.04599 c 0.0031,0.0039 0.006,0.008 0.0093,0.01189 -0.0033,-0.0039 -0.0062,-0.008 -0.0093,-0.01189 z m 0.0615,0.06615 c 0.02066,0.0187 0.04043,0.03977 0.05839,0.0615 -0.01797,-0.02175 -0.03773,-0.0428 -0.05839,-0.0615 z m 0.05839,0.0615 c 0.01796,0.02172 0.03392,0.04407 0.04754,0.06615 -0.01363,-0.02211 -0.02957,-0.0444 -0.04754,-0.06615 z m 0.04754,0.06615 c 0.01362,0.02208 0.02493,0.04379 0.03256,0.06356 -0.0076,-0.0198 -0.01892,-0.04145 -0.03256,-0.06356 z m 0.03256,0.06356 c 0.0076,0.01977 0.01189,0.03791 0.01189,0.05271 0,-0.0148 -0.0042,-0.03291 -0.01189,-0.05271 z m 3.730522,-0.0708 -1.858285,0.243913 c -1.585721,0.207751 -1.875045,0.264701 -1.969905,0.390157 -0.06116,0.08087 -0.112289,0.172171 -0.113689,0.202571 -0.0013,0.0304 0.208895,0.161146 0.467155,0.290939 0.258257,0.129793 0.567051,0.304923 0.686263,0.389123 0.119216,0.0842 0.338968,0.196804 0.488343,0.250114 0.275487,0.09832 0.674492,0.07058 0.947745,-0.06615 0.08264,-0.04135 0.370132,-0.282268 0.638721,-0.535368 0.268591,-0.253099 0.606749,-0.55041 0.751376,-0.660424 L 61.887179,14.119035 61.7368,13.966589 Z m -2.78691,0.09508 c -0.316961,0.04185 -0.560826,0.07528 -0.65009,0.08992 0.08926,-0.01464 0.333122,-0.04807 0.65009,-0.08992 z"
       inkscape:export-filename="lamp-filled-icon.svg"
       inkscape:export-xdpi="96"
       inkscape:export-ydpi="96" /><path
       id="path8"
       style="opacity:0.5;fill:#000000;stroke:none;stroke-width:0.3;stroke-linecap:round;stroke-linejoin:round;stroke-dashoffset:1.13386;paint-order:markers fill stroke"
       d="m 61.691325,11.602909 c -0.235131,-0.009 -0.749061,0.04191 -1.969389,0.170533 -1.174449,0.123785 -2.137389,0.259411 -2.197799,0.309541 -0.12131,0.100678 -0.146118,0.371037 -0.03411,0.371037 0.04026,0 0.125099,0.100924 0.188619,0.223759 0.0949,0.183537 0.152371,0.216969 0.321427,0.188619 0.113157,-0.01898 0.966276,-0.120717 1.896009,-0.226343 1.286048,-0.146107 1.708623,-0.219861 1.765783,-0.307991 0.04132,-0.06371 0.133879,-0.185832 0.206189,-0.271301 0.156646,-0.185145 0.159833,-0.215937 0.03772,-0.380856 -0.0329,-0.04443 -0.07338,-0.07157 -0.214457,-0.077 z m -0.08475,1.097608 c -0.03734,3.88e-4 -0.08085,0.0051 -0.132809,0.01292 -0.144624,0.02171 -1.040182,0.128241 -1.990576,0.236678 -0.950393,0.108437 -1.770461,0.231052 -1.822111,0.272851 -0.138688,0.112239 -0.114274,0.316381 0.05633,0.470773 0.08264,0.07479 0.150379,0.184703 0.150379,0.243913 0,0.08252 0.06566,0.0969 0.281636,0.06149 0.357055,-0.05854 3.184408,-0.41712 3.292306,-0.417546 0.04431,-1.71e-4 0.170448,-0.137434 0.280086,-0.304891 0.168859,-0.257916 0.18497,-0.327308 0.10697,-0.453719 -0.05459,-0.08846 -0.110185,-0.123638 -0.222208,-0.122473 z" /></g></svg>
