<?xml version="1.0" encoding="UTF-8" standalone="no"?>
<!-- Created with Inkscape (http://www.inkscape.org/) -->

<svg
   width="8.6496077mm"
   height="10.03234mm"
   viewBox="0 0 8.6496077 10.03234"
   version="1.1"
   id="svg1"
   xml:space="preserve"
   xmlns:inkscape="http://www.inkscape.org/namespaces/inkscape"
   xmlns:sodipodi="http://sodipodi.sourceforge.net/DTD/sodipodi-0.dtd"
   xmlns="http://www.w3.org/2000/svg"
   xmlns:svg="http://www.w3.org/2000/svg"><sodipodi:namedview
     id="namedview1"
     pagecolor="#ffffff"
     bordercolor="#000000"
     borderopacity="0.25"
     inkscape:showpageshadow="2"
     inkscape:pageopacity="0.0"
     inkscape:pagecheckerboard="0"
     inkscape:deskcolor="#d1d1d1"
     inkscape:document-units="mm" /><defs
     id="defs1" /><g
     inkscape:label="Camada 1"
     inkscape:groupmode="layer"
     id="layer1"
     transform="translate(-7.2145402,-21.728906)"><path
       id="path3"
       style="fill:#000000;stroke-width:0.17586"
       d="m 15.613,21.728906 c -0.05361,3.4e-5 -0.662958,0.143722 -1.353922,0.319361 -0.690964,0.175636 -2.062612,0.523457 -3.047876,0.773079 -0.985265,0.249622 -1.8384284,0.483408 -1.8960083,0.519348 l -0.1043864,0.06563 v 2.341976 2.342493 l -0.3260783,0.02325 c -0.7417158,0.05307 -1.4135555,0.616778 -1.6086873,1.349789 -0.2659232,0.998934 0.3558415,2.016856 1.3761434,2.253092 0.8556658,0.198117 1.7499969,-0.283235 2.1171829,-1.139465 0.08888,-0.207252 0.09377,-0.335627 0.106971,-2.710946 l 0.01395,-2.493388 1.614372,-0.426847 c 0.888071,-0.234911 1.630322,-0.42678 1.649512,-0.426331 0.01919,4.56e-4 0.03514,0.614009 0.03514,1.363741 v 1.363225 l -0.369487,0.05374 c -0.662529,0.09656 -1.140874,0.43445 -1.422652,1.00459 -0.465266,0.941403 -0.09062,2.015417 0.861446,2.4691 0.275685,0.13137 0.34378,0.144177 0.767912,0.144177 0.38541,0 0.504379,-0.01797 0.694015,-0.10542 0.499406,-0.230312 0.884475,-0.674388 1.052132,-1.213879 0.0883,-0.284015 0.09147,-0.442482 0.09147,-3.998206 0,-3.379614 -0.0067,-3.709169 -0.077,-3.786849 -0.04235,-0.0468 -0.12054,-0.0853 -0.17415,-0.08527 z" /></g></svg>
