<?xml version="1.0" encoding="UTF-8" standalone="no"?>
<!-- Created with Inkscape (http://www.inkscape.org/) -->

<svg
   width="8.6497173mm"
   height="10.032336mm"
   viewBox="0 0 8.6497173 10.032336"
   version="1.1"
   id="svg1"
   xml:space="preserve"
   xmlns:inkscape="http://www.inkscape.org/namespaces/inkscape"
   xmlns:sodipodi="http://sodipodi.sourceforge.net/DTD/sodipodi-0.dtd"
   xmlns="http://www.w3.org/2000/svg"
   xmlns:svg="http://www.w3.org/2000/svg"><sodipodi:namedview
     id="namedview1"
     pagecolor="#ffffff"
     bordercolor="#000000"
     borderopacity="0.25"
     inkscape:showpageshadow="2"
     inkscape:pageopacity="0.0"
     inkscape:pagecheckerboard="0"
     inkscape:deskcolor="#d1d1d1"
     inkscape:document-units="mm" /><defs
     id="defs1" /><g
     inkscape:label="Camada 1"
     inkscape:groupmode="layer"
     id="layer1"
     transform="translate(-7.2146417,-21.728931)"><path
       style="fill:#000000;stroke-width:0.17586"
       d="M 8.6522578,31.716924 C 7.6319549,31.480688 7.0102218,30.462704 7.2761452,29.463769 7.4712772,28.730758 8.142774,28.167327 8.8844905,28.114257 l 0.3261233,-0.02333 V 25.7485 23.406076 l 0.1046918,-0.06534 c 0.05758,-0.03594 0.9108174,-0.269581 1.8960834,-0.519203 0.985265,-0.249622 2.356728,-0.597562 3.047693,-0.773199 0.690965,-0.175639 1.300167,-0.31937 1.353782,-0.319404 0.05361,-3.4e-5 0.132132,0.03823 0.174485,0.08503 0.0703,0.07768 0.07701,0.407649 0.07701,3.787267 0,3.555727 -0.0036,3.713872 -0.0919,3.997887 -0.167657,0.539492 -0.552379,0.983469 -1.051786,1.213782 -0.189636,0.08745 -0.30883,0.105581 -0.69424,0.105581 -0.424132,0 -0.492053,-0.01275 -0.767738,-0.14412 -0.952063,-0.453683 -1.326841,-1.527743 -0.861574,-2.469147 0.281778,-0.570141 0.760074,-0.90783 1.422604,-1.004394 l 0.369564,-0.05386 v -1.363151 c 0,-0.749733 -0.01571,-1.363524 -0.0349,-1.36398 -0.01919,-4.49e-4 -0.761503,0.191372 -1.649575,0.426283 l -1.614677,0.427111 -0.01386,2.493454 c -0.0132,2.375321 -0.01828,2.503762 -0.10716,2.711014 -0.367187,0.856231 -1.2611931,1.337365 -2.1168598,1.139248 z m 0.915223,-0.593078 c 0.2671738,-0.113663 0.5436782,-0.375071 0.6739352,-0.637137 l 0.109174,-0.219653 0.01379,-2.613382 c 0.0112,-2.122728 0.02556,-2.623158 0.07652,-2.665447 0.07205,-0.0598 3.858842,-1.071298 4.013302,-1.072003 0.239386,-0.0011 0.246918,0.06064 0.246918,2.023574 0,1.569415 -0.0099,1.831317 -0.07243,1.920628 -0.0853,0.121779 -0.261603,0.134967 -0.368969,0.0276 -0.102322,-0.102322 -0.483871,-0.09107 -0.739028,0.0218 -1.003234,0.443778 -1.081591,1.813111 -0.134199,2.345236 0.663566,0.372708 1.462796,0.105368 1.812211,-0.606179 l 0.130569,-0.265891 0.01303,-3.524622 c 0.01011,-2.734548 3.52e-4,-3.524622 -0.04329,-3.524622 -0.03098,0 -1.287588,0.314075 -2.792466,0.697945 -1.504876,0.38387 -2.7469298,0.697945 -2.7601179,0.697945 -0.013189,0 -0.023977,1.084135 -0.023977,2.409189 0,2.105198 -0.00914,2.422238 -0.072433,2.512602 -0.086444,0.123416 -0.3054904,0.138896 -0.3974526,0.02809 -0.049153,-0.05923 -0.1192703,-0.07018 -0.32808,-0.05124 -0.3447882,0.03126 -0.7027904,0.226264 -0.9074237,0.494265 -0.823823,1.078928 0.3021591,2.532353 1.5504302,2.001307 z"
       id="path3" /></g></svg>
