<?xml version="1.0" encoding="UTF-8" standalone="no"?>
<!-- Created with Inkscape (http://www.inkscape.org/) -->

<svg
   width="6.4997487mm"
   height="6.0197835mm"
   viewBox="0 0 6.4997487 6.0197835"
   version="1.1"
   id="svg1"
   xml:space="preserve"
   inkscape:version="1.3.2 (091e20e, 2023-11-25, custom)"
   sodipodi:docname="vectors.svg"
   xmlns:inkscape="http://www.inkscape.org/namespaces/inkscape"
   xmlns:sodipodi="http://sodipodi.sourceforge.net/DTD/sodipodi-0.dtd"
   xmlns="http://www.w3.org/2000/svg"
   xmlns:svg="http://www.w3.org/2000/svg"><sodipodi:namedview
     id="namedview1"
     pagecolor="#ffffff"
     bordercolor="#000000"
     borderopacity="0.25"
     inkscape:showpageshadow="2"
     inkscape:pageopacity="0.0"
     inkscape:pagecheckerboard="0"
     inkscape:deskcolor="#d1d1d1"
     inkscape:document-units="mm"
     inkscape:zoom="3.2302717"
     inkscape:cx="71.201441"
     inkscape:cy="74.761513"
     inkscape:window-width="1600"
     inkscape:window-height="837"
     inkscape:window-x="-8"
     inkscape:window-y="-8"
     inkscape:window-maximized="1"
     inkscape:current-layer="layer1"
     showgrid="false" /><defs
     id="defs1" /><g
     inkscape:label="Camada 1"
     inkscape:groupmode="layer"
     id="layer1"
     transform="translate(-26.656741,-8.8411958)"><path
       style="fill:#000000;stroke-width:0.258545"
       d="m 26.76323,14.708945 c -0.09104,-0.129979 -0.106489,-0.472335 -0.106489,-2.360029 0,-2.116785 0.0057,-2.213646 0.136813,-2.344808 0.07525,-0.075247 0.194531,-0.1368126 0.265076,-0.1368126 0.08689,0 0.141097,-0.064172 0.168049,-0.1989357 0.03044,-0.1522172 0.09671,-0.2177221 0.282178,-0.2789316 0.155982,-0.051479 0.24239,-0.123097 0.24239,-0.2009021 0,-0.066498 0.05629,-0.1718514 0.125098,-0.234118 0.105727,-0.095682 0.299248,-0.1132121 1.249772,-0.1132121 h 1.124674 l 0.646847,0.6495477 0.646847,0.6495474 0.395003,-0.3908812 0.395003,-0.3908816 0.410999,0.4067105 0.410999,0.4067103 -0.787235,0.789292 -0.787236,0.789292 v 0.90536 c 0,0.814151 -0.01378,0.919143 -0.136813,1.042174 -0.07525,0.07525 -0.198379,0.136813 -0.273627,0.136813 -0.08685,0 -0.136813,0.0456 -0.136813,0.124889 0,0.153511 -0.274954,0.422364 -0.43195,0.422364 -0.06647,0 -0.115303,0.05345 -0.115303,0.126211 0,0.06942 -0.05629,0.177156 -0.125098,0.239423 -0.109273,0.09889 -0.338101,0.113212 -1.808897,0.113212 -1.662442,0 -1.685149,-0.0019 -1.790287,-0.152034 z m 3.506074,-0.207101 c 0.02132,-0.110877 -0.08083,-0.119711 -1.384332,-0.119711 -1.316143,0 -1.416218,-0.0089 -1.544165,-0.136813 -0.130644,-0.130644 -0.136813,-0.228022 -0.136813,-2.159567 V 10.063 l -0.153915,0.02186 -0.153915,0.02186 -0.01808,2.18842 c -0.0099,1.203631 -0.003,2.227714 0.01542,2.275741 0.02617,0.06821 0.396722,0.08331 1.693145,0.069 1.517777,-0.01676 1.661604,-0.02855 1.682657,-0.138033 z m 0.518719,-0.433136 c 0.02284,-0.05951 0.04152,-0.13647 0.04152,-0.171016 0,-0.03608 -0.590345,-0.06281 -1.387115,-0.06281 -1.144733,0 -1.413681,-0.01861 -1.539149,-0.106489 -0.151352,-0.106011 -0.152034,-0.11568 -0.152034,-2.154809 0,-1.19831 -0.02607,-2.0483199 -0.06281,-2.0483199 -0.281832,0 -0.279221,-0.02171 -0.279221,2.3217429 0,1.231285 0.02052,2.259221 0.0456,2.284304 0.02508,0.02508 0.775972,0.0456 1.668644,0.0456 1.416895,0 1.628313,-0.01374 1.664561,-0.108205 z m 0.573954,-1.289617 0.01938,-0.816365 -0.395618,0.376621 c -0.33949,0.323188 -0.462333,0.393321 -0.865864,0.494333 -0.258635,0.06474 -0.487604,0.100355 -0.50882,0.07914 -0.02122,-0.02122 0.01449,-0.261089 0.07935,-0.533051 0.117622,-0.493212 0.119971,-0.496533 0.918191,-1.298255 l 0.800267,-0.803778 h -0.516007 c -0.709475,0 -0.771327,-0.05483 -0.804577,-0.7132754 l -0.02634,-0.5215259 -1.035636,0.018843 -1.035637,0.018843 -0.01808,2.1884213 c -0.0099,1.203631 -0.003,2.227714 0.01542,2.27574 0.02618,0.06821 0.396893,0.08331 1.694048,0.069 l 1.660539,-0.01832 z m -2.824353,0.09761 c -0.06312,-0.102135 0.11314,-0.147186 0.48249,-0.12332 0.18511,0.01196 0.340257,0.05844 0.356144,0.106701 0.03496,0.106211 -0.773363,0.122229 -0.838634,0.01662 z m -0.0168,-0.700685 c 0.01909,-0.05728 0.182797,-0.08551 0.495948,-0.08551 0.31315,0 0.476853,0.02823 0.495948,0.08551 0.02115,0.06345 -0.106791,0.08551 -0.495948,0.08551 -0.389158,0 -0.517098,-0.02206 -0.495948,-0.08551 z m 0.03036,-0.505489 c -0.113086,-0.113086 0.07889,-0.161476 0.640639,-0.161476 0.49806,0 0.611623,0.01905 0.611623,0.10261 0,0.08347 -0.112745,0.10261 -0.604259,0.10261 -0.332342,0 -0.623943,-0.01968 -0.648003,-0.04374 z m -0.04746,-0.777135 c 0,-0.04256 0.387637,-0.06841 1.026099,-0.06841 0.638462,0 1.0261,0.02584 1.0261,0.06841 0,0.04256 -0.387638,0.06841 -1.0261,0.06841 -0.638462,0 -1.026099,-0.02584 -1.026099,-0.06841 z"
       id="path1"
       sodipodi:nodetypes="csssssssscccccccccsssssssscsssscccsssssssssssssssccssssscsscccsssccssssssssssssssssssss" /></g></svg>
