<?xml version="1.0" encoding="UTF-8" standalone="no"?>
<!-- Created with Inkscape (http://www.inkscape.org/) -->

<svg
   width="13.422091mm"
   height="14.457483mm"
   viewBox="0 0 13.42209 14.457483"
   version="1.1"
   id="svg1"
   xml:space="preserve"
   sodipodi:docname="image1.svg"
   xmlns:inkscape="http://www.inkscape.org/namespaces/inkscape"
   xmlns:sodipodi="http://sodipodi.sourceforge.net/DTD/sodipodi-0.dtd"
   xmlns="http://www.w3.org/2000/svg"
   xmlns:svg="http://www.w3.org/2000/svg"><sodipodi:namedview
     id="namedview1"
     pagecolor="#ffffff"
     bordercolor="#000000"
     borderopacity="0.25"
     inkscape:showpageshadow="2"
     inkscape:pageopacity="0.0"
     inkscape:pagecheckerboard="0"
     inkscape:deskcolor="#d1d1d1"
     inkscape:document-units="mm" /><defs
     id="defs1" /><g
     inkscape:label="Camada 1"
     inkscape:groupmode="layer"
     id="layer1"
     transform="translate(-49.002608,-49.418792)"><path
       style="fill:#000000;stroke-width:0.637948"
       d="m 50.412622,63.845678 c -0.530751,-0.09426 -1.041094,-0.498904 -1.284677,-1.018604 l -0.125338,-0.267415 v -5.916991 -5.916991 l 0.15312,-0.311031 c 0.189843,-0.385626 0.55931,-0.736616 0.934366,-0.887636 0.259385,-0.104445 0.316022,-0.108217 1.624991,-0.108217 1.303198,0 1.366582,0.0041 1.620719,0.106618 0.491332,0.198067 0.85357,0.572593 1.024685,1.059446 0.08756,0.249132 0.09046,0.443015 0.09046,6.058794 0,5.591824 -0.0033,5.810615 -0.08939,6.055748 -0.121705,0.34627 -0.346573,0.645649 -0.631402,0.840615 -0.447002,0.305973 -0.527831,0.320366 -1.874772,0.33381 -0.668766,0.0067 -1.318009,-0.006 -1.442763,-0.02815 z m 8.003239,8.93e-4 C 57.869402,63.749 57.378358,63.377477 57.131546,62.87486 l -0.131807,-0.268415 -0.0124,-5.866511 c -0.01372,-6.490227 -0.02991,-6.122591 0.289382,-6.571686 0.208983,-0.293939 0.480267,-0.507967 0.814782,-0.642818 0.254136,-0.102448 0.31752,-0.106617 1.620718,-0.106617 1.30897,0 1.365606,0.0038 1.624992,0.108217 0.375055,0.15102 0.744522,0.502009 0.934366,0.887636 l 0.15312,0.311031 v 5.917974 5.917974 l -0.15312,0.311031 c -0.191287,0.388558 -0.56019,0.737988 -0.934366,0.885043 -0.251307,0.09877 -0.347683,0.106357 -1.484692,0.116942 -0.668766,0.0063 -1.315261,-0.0064 -1.436655,-0.02809 z"
       id="path2" /></g></svg>
