<?xml version="1.0" encoding="UTF-8" standalone="no"?>
<!-- Created with Inkscape (http://www.inkscape.org/) -->

<svg
   width="3.8222189mm"
   height="4.1801834mm"
   viewBox="0 0 3.8222189 4.1801834"
   version="1.1"
   id="svg1"
   xml:space="preserve"
   inkscape:version="1.3.2 (091e20e, 2023-11-25, custom)"
   sodipodi:docname="vectors.svg"
   xmlns:inkscape="http://www.inkscape.org/namespaces/inkscape"
   xmlns:sodipodi="http://sodipodi.sourceforge.net/DTD/sodipodi-0.dtd"
   xmlns="http://www.w3.org/2000/svg"
   xmlns:svg="http://www.w3.org/2000/svg"><sodipodi:namedview
     id="namedview1"
     pagecolor="#ffffff"
     bordercolor="#000000"
     borderopacity="0.25"
     inkscape:showpageshadow="2"
     inkscape:pageopacity="0.0"
     inkscape:pagecheckerboard="0"
     inkscape:deskcolor="#d1d1d1"
     inkscape:document-units="mm"
     inkscape:zoom="3.2302717"
     inkscape:cx="71.201441"
     inkscape:cy="74.761513"
     inkscape:window-width="1600"
     inkscape:window-height="837"
     inkscape:window-x="-8"
     inkscape:window-y="-8"
     inkscape:window-maximized="1"
     inkscape:current-layer="layer1"
     showgrid="false" /><defs
     id="defs1" /><g
     inkscape:label="Camada 1"
     inkscape:groupmode="layer"
     id="layer1"
     transform="translate(-19.467328,-17.899398)"><path
       style="fill:#000000;stroke:#000000;stroke-width:0.156559;stroke-dasharray:none"
       d="m 19.571769,21.940732 c -0.06807,-0.08204 0.0025,-0.444025 0.144582,-0.741775 0.156277,-0.327469 0.507846,-0.67774 0.838612,-0.835537 l 0.246126,-0.117419 -0.135251,-0.09797 c -0.452758,-0.327976 -0.615806,-0.988983 -0.368589,-1.494278 0.122992,-0.251397 0.421947,-0.524761 0.66575,-0.60877 0.923232,-0.318127 1.841849,0.536547 1.567892,1.458753 -0.0743,0.250115 -0.240615,0.493877 -0.426226,0.624708 l -0.160667,0.113255 0.254575,0.125341 c 0.346397,0.170555 0.653856,0.476553 0.822579,0.81867 0.15598,0.316276 0.233774,0.672985 0.164877,0.756001 -0.109262,0.131665 -0.207528,0.04453 -0.266244,-0.236117 -0.18588,-0.888414 -1.072612,-1.439564 -1.948941,-1.211369 -0.568925,0.148151 -1.039628,0.655434 -1.145879,1.234942 -0.04761,0.259672 -0.145427,0.341416 -0.253193,0.211575 z m 1.989152,-1.858855 c 0.698533,-0.140292 0.977015,-0.995395 0.49715,-1.526549 -0.412781,-0.456898 -1.145434,-0.388383 -1.474445,0.137881 -0.08381,0.134061 -0.108276,0.21836 -0.119141,0.410611 -0.02688,0.475661 0.23121,0.851641 0.664874,0.968584 0.206039,0.05556 0.202434,0.05548 0.431556,0.0094 z"
       id="path13" /></g></svg>
