<?xml version="1.0" encoding="UTF-8" standalone="no"?>
<!-- Created with Inkscape (http://www.inkscape.org/) -->

<svg
   width="20.683435mm"
   height="15.179781mm"
   viewBox="0 0 20.683435 15.179781"
   version="1.1"
   id="svg1"
   xml:space="preserve"
   inkscape:version="1.3.2 (091e20e, 2023-11-25, custom)"
   sodipodi:docname="vectors.svg"
   xmlns:inkscape="http://www.inkscape.org/namespaces/inkscape"
   xmlns:sodipodi="http://sodipodi.sourceforge.net/DTD/sodipodi-0.dtd"
   xmlns="http://www.w3.org/2000/svg"
   xmlns:svg="http://www.w3.org/2000/svg"><sodipodi:namedview
     id="namedview1"
     pagecolor="#ffffff"
     bordercolor="#000000"
     borderopacity="0.25"
     inkscape:showpageshadow="2"
     inkscape:pageopacity="0.0"
     inkscape:pagecheckerboard="0"
     inkscape:deskcolor="#d1d1d1"
     inkscape:document-units="mm"
     inkscape:zoom="1.1420735"
     inkscape:cx="28.019212"
     inkscape:cy="145.78746"
     inkscape:window-width="1600"
     inkscape:window-height="837"
     inkscape:window-x="-8"
     inkscape:window-y="-8"
     inkscape:window-maximized="1"
     inkscape:current-layer="layer1" /><defs
     id="defs1" /><g
     inkscape:label="Camada 1"
     inkscape:groupmode="layer"
     id="layer1"
     transform="translate(-67.642427,-23.419103)"><path
       style="fill:#000000"
       d="m 68.680252,38.3009 c -0.243124,-0.163841 -0.576095,-0.496812 -0.739936,-0.739936 l -0.297893,-0.442043 v -6.118777 -6.118777 l 0.294775,-0.433114 c 0.162127,-0.238213 0.461193,-0.556445 0.664591,-0.707183 0.365236,-0.270675 0.477977,-0.274557 9.105276,-0.313487 5.69365,-0.02569 8.89643,0.0073 9.19772,0.09482 0.25424,0.07383 0.66693,0.345361 0.91708,0.6034 l 0.45482,0.469163 0.0353,6.2486 c 0.0398,7.050606 0.0634,6.868134 -0.96598,7.458298 l -0.51041,0.29262 -8.85663,0.0022 -8.85663,0.0022 z m 3.940593,-2.977387 v -2.22719 h -0.40164 c -0.22091,0 -0.51568,-0.06103 -0.65506,-0.135621 -0.242295,-0.129672 -0.253409,-0.316407 -0.253409,-4.257863 v -4.122243 h -1.03858 c -1.692205,0 -1.581643,-0.447945 -1.581643,6.408065 0,5.039539 0.02497,5.753323 0.210534,6.018254 0.315695,0.450717 0.63311,0.526397 2.245925,0.535484 l 1.473873,0.0083 z m 5.07985,-0.03275 0.0359,-2.194437 h -0.45234 c -0.872,0 -0.8641,0.04082 -0.8641,-4.463738 v -4.051989 h -0.98259 -0.98258 v 4.122243 c 0,4.02468 -0.006,4.125652 -0.26918,4.266302 -0.14804,0.07923 -0.42808,0.125523 -0.6223,0.102868 l -0.35313,-0.04119 -0.0362,2.090919 c -0.0199,1.150006 -0.006,2.168412 0.0299,2.263124 0.0517,0.134816 0.54315,0.164402 2.2634,0.13627 l 2.19733,-0.03593 z m 5.13902,0.03275 v -2.22719 h -0.44918 c -0.8684,0 -0.86093,0.03875 -0.86093,-4.463738 v -4.051989 h -0.98258 -0.98259 v 4.122243 c 0,3.941456 -0.0111,4.128191 -0.2534,4.257863 -0.13938,0.07459 -0.43415,0.135621 -0.65506,0.135621 h -0.40165 v 2.139849 c 0,1.176917 0.0393,2.179153 0.0873,2.22719 0.048,0.04804 1.07975,0.08734 2.2927,0.08734 h 2.20535 z m 3.76172,2.089658 c 0.21699,-0.07564 0.46161,-0.284759 0.54359,-0.464704 0.10409,-0.22845 0.14907,-2.039602 0.14907,-6.002325 0,-6.807197 0.10974,-6.365546 -1.58164,-6.365546 h -1.03858 v 4.122243 c 0,3.941456 -0.0111,4.128191 -0.25341,4.257863 -0.13937,0.07459 -0.43415,0.135621 -0.65505,0.135621 h -0.40165 v 2.139849 c 0,1.176917 0.0393,2.179153 0.0873,2.22719 0.14109,0.141096 2.71944,0.100017 3.15033,-0.05019 z"
       id="path5" /></g></svg>
