<?xml version="1.0" encoding="UTF-8" standalone="no"?>
<!-- Created with Inkscape (http://www.inkscape.org/) -->

<svg
   width="12.442087mm"
   height="14.24201mm"
   viewBox="0 0 12.442087 14.24201"
   version="1.1"
   id="svg1"
   xml:space="preserve"
   sodipodi:docname="image1.svg"
   xmlns:inkscape="http://www.inkscape.org/namespaces/inkscape"
   xmlns:sodipodi="http://sodipodi.sourceforge.net/DTD/sodipodi-0.dtd"
   xmlns="http://www.w3.org/2000/svg"
   xmlns:svg="http://www.w3.org/2000/svg"><sodipodi:namedview
     id="namedview1"
     pagecolor="#ffffff"
     bordercolor="#000000"
     borderopacity="0.25"
     inkscape:showpageshadow="2"
     inkscape:pageopacity="0.0"
     inkscape:pagecheckerboard="0"
     inkscape:deskcolor="#d1d1d1"
     inkscape:document-units="mm" /><defs
     id="defs1" /><g
     inkscape:label="Camada 1"
     inkscape:groupmode="layer"
     id="layer1"
     transform="translate(-30.982962,-49.537687)"><path
       style="fill:#000000"
       d="m 33.057555,63.756795 c -0.08266,-0.01211 -0.259327,-0.05844 -0.392593,-0.102963 -0.429996,-0.143654 -0.734678,-0.342164 -1.056093,-0.688077 -0.203706,-0.219233 -0.314571,-0.391836 -0.444071,-0.691367 -0.194911,-0.450828 -0.181646,-0.03839 -0.181646,-5.647477 0,-4.710929 0.0029,-5.03641 0.04605,-5.204567 0.228337,-0.889346 0.856035,-1.545132 1.735315,-1.812964 0.212503,-0.06473 0.272321,-0.0713 0.652709,-0.07169 0.47039,-4.77e-4 0.661518,0.03721 1.01285,0.199697 0.186472,0.08624 7.675687,4.704073 7.99408,4.929129 0.339406,0.239908 0.670941,0.669619 0.840491,1.089382 0.233233,0.577427 0.210425,1.340698 -0.05738,1.920332 -0.177157,0.383433 -0.504161,0.771941 -0.838915,0.996701 -0.159608,0.107165 -7.541528,4.678271 -7.763822,4.807592 -0.410895,0.239042 -1.037352,0.350918 -1.546977,0.276267 z"
       id="path1" /></g></svg>
