<?xml version="1.0" encoding="UTF-8" standalone="no"?>
<!-- Created with Inkscape (http://www.inkscape.org/) -->

<svg
   width="15.982612mm"
   height="12.296002mm"
   viewBox="0 0 15.982612 12.296002"
   version="1.1"
   id="svg1"
   xml:space="preserve"
   inkscape:version="1.3.2 (091e20e, 2023-11-25, custom)"
   sodipodi:docname="vectors.svg"
   xmlns:inkscape="http://www.inkscape.org/namespaces/inkscape"
   xmlns:sodipodi="http://sodipodi.sourceforge.net/DTD/sodipodi-0.dtd"
   xmlns="http://www.w3.org/2000/svg"
   xmlns:svg="http://www.w3.org/2000/svg"><sodipodi:namedview
     id="namedview1"
     pagecolor="#ffffff"
     bordercolor="#000000"
     borderopacity="0.25"
     inkscape:showpageshadow="2"
     inkscape:pageopacity="0.0"
     inkscape:pagecheckerboard="0"
     inkscape:deskcolor="#d1d1d1"
     inkscape:document-units="mm"
     inkscape:zoom="0.20189198"
     inkscape:cx="138.68802"
     inkscape:cy="512.65037"
     inkscape:window-width="1600"
     inkscape:window-height="837"
     inkscape:window-x="-8"
     inkscape:window-y="-8"
     inkscape:window-maximized="1"
     inkscape:current-layer="layer1" /><defs
     id="defs1" /><g
     inkscape:label="Camada 1"
     inkscape:groupmode="layer"
     id="layer1"
     transform="translate(-25.686696,-25.328847)"><path
       style="fill:#000000;stroke-width:0.749178"
       d="m 40.877966,37.596196 c -0.181676,-0.06744 -0.128565,-0.0061 -0.794207,-0.917932 -0.654322,-0.896369 -0.78198,-1.055174 -1.101118,-1.369773 -0.871892,-0.859497 -1.937035,-1.39382 -3.182945,-1.596711 -0.227363,-0.03702 -0.459645,-0.04894 -0.976379,-0.05009 l -0.678041,-0.0015 -0.0079,0.569555 c -0.0064,0.463704 -0.01804,0.609675 -0.06268,0.785436 -0.148207,0.583486 -0.515935,1.032466 -1.068574,1.304684 -0.333744,0.164395 -0.532474,0.211316 -0.895014,0.211316 -0.662837,0 -0.849996,-0.09983 -2.115488,-1.128358 -0.537008,-0.436454 -1.171655,-0.951559 -1.410325,-1.144677 -0.23867,-0.193118 -0.554362,-0.449377 -0.701537,-0.569465 -0.358866,-0.29282 -1.016919,-0.825999 -1.251221,-1.013786 -0.411563,-0.329859 -0.583827,-0.524459 -0.742483,-0.838756 -0.144161,-0.28558 -0.203358,-0.548056 -0.203358,-0.901674 0,-0.375675 0.06414,-0.636784 0.235647,-0.959333 0.192318,-0.361685 0.245702,-0.411415 1.75143,-1.631523 0.202999,-0.164492 0.556704,-0.451304 0.786009,-0.637358 0.229306,-0.186055 0.620505,-0.503045 0.86933,-0.704423 1.209804,-0.979113 1.454055,-1.177934 1.466597,-1.193814 0.03332,-0.04218 0.368751,-0.253836 0.480928,-0.303457 0.745486,-0.329764 1.615199,-0.187749 2.216667,0.361959 0.208721,0.19076 0.459268,0.578295 0.549189,0.849464 0.06719,0.202631 0.07293,0.257342 0.08115,0.774037 0.0049,0.305797 0.01171,0.696348 0.01522,0.867893 l 0.0064,0.311898 0.366142,0.04592 c 0.201378,0.02525 0.732284,0.09024 1.179791,0.144422 1.347699,0.163164 1.833131,0.292535 2.63835,0.70314 1.567912,0.799523 2.715756,2.233064 3.139256,3.920614 0.171825,0.684681 0.181891,0.801582 0.195481,2.270299 0.01346,1.454603 0.0099,1.497117 -0.141125,1.668679 -0.149644,0.170032 -0.442302,0.248653 -0.645206,0.173333 z"
       id="path3" /></g></svg>
