<?xml version="1.0" encoding="UTF-8" standalone="no"?>
<!-- Created with Inkscape (http://www.inkscape.org/) -->

<svg
   width="14.467786mm"
   height="18.312948mm"
   viewBox="0 0 14.467786 18.312948"
   version="1.1"
   id="svg1"
   xml:space="preserve"
   inkscape:version="1.3.2 (091e20e, 2023-11-25, custom)"
   sodipodi:docname="vectors.svg"
   xmlns:inkscape="http://www.inkscape.org/namespaces/inkscape"
   xmlns:sodipodi="http://sodipodi.sourceforge.net/DTD/sodipodi-0.dtd"
   xmlns="http://www.w3.org/2000/svg"
   xmlns:svg="http://www.w3.org/2000/svg"><sodipodi:namedview
     id="namedview1"
     pagecolor="#ffffff"
     bordercolor="#000000"
     borderopacity="0.25"
     inkscape:showpageshadow="2"
     inkscape:pageopacity="0.0"
     inkscape:pagecheckerboard="0"
     inkscape:deskcolor="#d1d1d1"
     inkscape:document-units="mm"
     inkscape:zoom="1.1420735"
     inkscape:cx="28.019212"
     inkscape:cy="145.78746"
     inkscape:window-width="1600"
     inkscape:window-height="837"
     inkscape:window-x="-8"
     inkscape:window-y="-8"
     inkscape:window-maximized="1"
     inkscape:current-layer="layer1" /><defs
     id="defs1" /><g
     inkscape:label="Camada 1"
     inkscape:groupmode="layer"
     id="layer1"
     transform="translate(-92.27598,-22.222032)"><path
       style="fill:#000000;stroke-width:0.430928"
       d="m 92.297826,40.498708 c 0.02228,-0.02879 0.862391,-1.236929 1.866916,-2.684742 1.004522,-1.447812 2.155874,-3.106217 2.55855,-3.685342 0.402682,-0.579124 0.940854,-1.3534 1.195938,-1.720611 l 0.463788,-0.667656 -1.096827,-1.097268 -1.096828,-1.097268 0.28512,-0.198595 c 1.074842,-0.748651 2.060911,-1.433456 5.749597,-3.992977 2.28654,-1.586597 4.23887,-2.940409 4.33852,-3.00847 l 0.18117,-0.123747 -0.16606,0.234664 c -0.0913,0.129066 -0.59656,0.855544 -1.12273,1.614398 -1.24589,1.796913 -2.49564,3.596828 -3.79135,5.460404 l -1.04483,1.502749 1.09642,1.096859 1.09641,1.096858 -0.23023,0.163446 c -0.12663,0.08989 -0.81844,0.571367 -1.53736,1.069938 -3.48033,2.413635 -6.247365,4.334144 -6.608195,4.586533 -0.796672,0.557246 -2.070885,1.43974 -2.124063,1.471084 -0.04355,0.02566 -0.04634,0.02159 -0.01397,-0.02025 z"
       id="path6" /></g></svg>
