<?xml version="1.0" encoding="UTF-8" standalone="no"?>
<!-- Created with Inkscape (http://www.inkscape.org/) -->

<svg
   width="13.092862mm"
   height="13.09068mm"
   viewBox="0 0 13.092862 13.09068"
   version="1.1"
   id="svg1"
   xml:space="preserve"
   inkscape:version="1.3.2 (091e20e, 2023-11-25, custom)"
   sodipodi:docname="icons.svg"
   xmlns:inkscape="http://www.inkscape.org/namespaces/inkscape"
   xmlns:sodipodi="http://sodipodi.sourceforge.net/DTD/sodipodi-0.dtd"
   xmlns="http://www.w3.org/2000/svg"
   xmlns:svg="http://www.w3.org/2000/svg"><sodipodi:namedview
     id="namedview1"
     pagecolor="#ffffff"
     bordercolor="#000000"
     borderopacity="0.25"
     inkscape:showpageshadow="2"
     inkscape:pageopacity="0.0"
     inkscape:pagecheckerboard="0"
     inkscape:deskcolor="#d1d1d1"
     inkscape:document-units="mm"
     inkscape:zoom="4.568294"
     inkscape:cx="244.83976"
     inkscape:cy="39.949268"
     inkscape:window-width="1600"
     inkscape:window-height="837"
     inkscape:window-x="-8"
     inkscape:window-y="-8"
     inkscape:window-maximized="1"
     inkscape:current-layer="layer1" /><defs
     id="defs1" /><g
     inkscape:label="Camada 1"
     inkscape:groupmode="layer"
     id="layer1"
     transform="translate(-84.439676,-2.5486759)"><path
       id="path6"
       style="fill:#000000;stroke-width:0.952289"
       d="m 87.569849,2.5486816 c -1.288319,-2.76e-4 -2.099364,0.00942 -2.185913,0.025838 -0.459205,0.087087 -0.830167,0.4575349 -0.917257,0.9167399 -0.036,0.1897872 -0.036,8.7140635 0,8.9038495 0.08508,0.448602 0.458148,0.829507 0.897103,0.915706 0.06176,0.01214 1.499416,0.02331 3.195154,0.02481 l 3.083532,0.0026 0.08268,-0.103353 c 0.0457,-0.05687 0.09279,-0.136283 0.104386,-0.176733 0.01462,-0.05097 -0.158164,-1.521577 -0.563273,-4.7888556 C 90.94472,5.6759566 90.668741,3.4983197 90.653381,3.4297648 90.590039,3.147117 90.324404,2.808295 90.060653,2.6737386 89.823826,2.5529302 89.750309,2.5491539 87.569849,2.5486816 Z m 0.33538,2.7326498 c 0.23694,0 0.473663,0.013658 0.542602,0.041341 0.194339,0.078032 0.182894,0.038308 0.612883,2.1807455 0.251404,1.2526354 0.389705,1.9952185 0.382405,2.0556884 -0.03077,0.2534211 -0.306856,0.398376 -0.544153,0.2857707 C 88.74256,9.7706577 88.718278,9.7064618 88.578056,9.0056519 L 88.447314,8.3524618 h -0.542085 -0.542603 l -0.130224,0.6531901 c -0.140223,0.7008099 -0.165021,0.7650039 -0.321428,0.8392252 -0.237604,0.112751 -0.513333,-0.032022 -0.544153,-0.2857707 -0.0073,-0.060469 0.131002,-0.803053 0.382406,-2.0556884 0.429988,-2.1424354 0.418545,-2.1027146 0.612882,-2.1807455 0.06894,-0.027683 0.306179,-0.041341 0.54312,-0.041341 z m -0.08217,0.7699788 -0.153479,0.7668783 -0.153479,0.7668782 h 0.389124 0.388606 L 88.140356,6.8181885 87.986877,6.0513102 h -0.08165 z m 6.656958,1.7600993 c -0.01821,0.05017 -0.03097,0.1083602 -0.03721,0.1788005 0.0062,-0.070252 0.01911,-0.1287362 0.03721,-0.1788005 z m -0.658358,0.5410523 c -0.257773,0 -0.41543,0.00176 -0.517797,0.00775 0.10232,-0.00603 0.260024,-0.00775 0.517797,-0.00775 z m 2.012281,0 c 0.263156,0 0.423575,0.00175 0.527616,0.00775 -0.103985,-0.00597 -0.264279,-0.00775 -0.527616,-0.00775 z m -2.716114,0.041341 c -0.03156,0.014977 -0.05968,0.033884 -0.08423,0.05581 0.02456,-0.021919 0.05267,-0.040834 0.08423,-0.05581 z m -0.08423,0.05581 c -0.02456,0.021927 -0.04564,0.046814 -0.06305,0.073897 0.01741,-0.02707 0.03848,-0.051978 0.06305,-0.073897 z m -0.06305,0.073897 c -0.03481,0.054167 -0.05515,0.1168302 -0.06046,0.1808676 0.0053,-0.064002 0.02564,-0.1267272 0.06046,-0.1808676 z M 96.550172,8.393802 c 0.03156,0.014977 0.05967,0.033892 0.08423,0.05581 -0.02457,-0.021927 -0.05267,-0.040834 -0.08423,-0.05581 z m 0.08423,0.05581 c 0.02456,0.021919 0.04563,0.046827 0.06305,0.073897 -0.01743,-0.027083 -0.03848,-0.051971 -0.06305,-0.073897 z m -3.694339,0.443902 c 0.01263,0.029654 0.02916,0.057832 0.04961,0.083716 -0.02057,-0.025968 -0.03693,-0.053947 -0.04961,-0.083716 z m 0.04961,0.083716 c 0.02063,0.026108 0.04516,0.049817 0.0739,0.07028 -0.02861,-0.020375 -0.05333,-0.044313 -0.0739,-0.07028 z m 0.0739,0.07028 c 0.02116,0.01507 0.05389,0.029898 0.08992,0.041858 -0.03606,-0.012036 -0.06875,-0.026788 -0.08992,-0.041858 z m 3.66489,-0.153996 c -0.02535,0.059539 -0.06628,0.1132457 -0.123507,0.1539958 0.05723,-0.04075 0.09819,-0.094431 0.123507,-0.1539958 z m -0.123507,0.1539958 c -0.02126,0.015137 -0.05429,0.029832 -0.09043,0.041858 0.03617,-0.011931 0.06918,-0.026722 0.09043,-0.041858 z m -4.484481,-0.142627 c 0.211283,1.7002062 0.323076,2.6100052 0.390674,3.1982542 -0.06841,-0.59223 -0.18352,-1.531277 -0.390674,-3.1982542 z m 1.32085,0.377238 c 0.04295,0.1187975 0.09215,0.2397681 0.145727,0.3596679 -0.05356,-0.1198708 -0.102778,-0.2408702 -0.145727,-0.3596679 z m 0.145727,0.3596679 c 0.05358,0.1198998 0.111547,0.2389202 0.1726,0.3539836 -0.06104,-0.1150247 -0.119036,-0.2341127 -0.1726,-0.3539836 z m 0.1726,0.3539836 c 0.122106,0.2301267 0.255997,0.4444517 0.389123,0.6196007 -0.133126,-0.175149 -0.267047,-0.389551 -0.389123,-0.6196007 z m 2.424141,-0.6077148 c -0.03231,0.089346 -0.07433,0.1868687 -0.121956,0.2878377 0.04774,-0.1011524 0.08958,-0.1983216 0.121956,-0.2878377 z M 96.04375,9.7141357 c -0.04906,0.101468 -0.103611,0.2062014 -0.163814,0.3121253 0.06015,-0.1058017 0.114792,-0.210762 0.163814,-0.3121253 z m -0.392224,0.6805783 c -0.06615,0.09931 -0.134202,0.196826 -0.203605,0.287838 0.06946,-0.09109 0.137413,-0.188465 0.203605,-0.287838 z m -2.141988,1.053683 c -0.05414,0.04973 -0.09692,0.09331 -0.129191,0.132808 0.03205,-0.03927 0.07558,-0.08348 0.129191,-0.132808 z m 2.669087,0.01809 c 0.05394,0.0473 0.09454,0.08796 0.124541,0.125573 -0.03,-0.0376 -0.0706,-0.07828 -0.124541,-0.125573 z m -1.580782,0.077 c -0.125989,0.110577 -0.286456,0.242438 -0.429431,0.356051 0.143082,-0.113682 0.303267,-0.245321 0.429431,-0.356051 z m -1.309997,0.260966 c -1.5e-4,0.03317 0.0045,0.06546 0.01344,0.09612 -0.0089,-0.03066 -0.01359,-0.06294 -0.01344,-0.09612 z m 3.093351,0.0072 c 0,0.05225 -0.01231,0.102728 -0.03411,0.148311 0.02196,-0.04574 0.03411,-0.09584 0.03411,-0.148311 z m -0.03462,0.148828 c -0.01666,0.03469 -0.04021,0.06525 -0.06666,0.09354 0.02638,-0.02817 0.04999,-0.05899 0.06666,-0.09354 z m -2.517159,0.190686 c -0.02848,0.01486 -0.05855,0.02505 -0.08888,0.03049 0.0305,-0.0054 0.06025,-0.01555 0.08888,-0.03049 z m -0.0894,0.03049 c -0.0305,0.0054 -0.06118,0.0062 -0.09198,0.0031 0.03063,0.0031 0.06165,0.0022 0.09198,-0.0031 z m -1.176673,1.073837 c -0.014,0.0545 -0.03178,0.106935 -0.05374,0.15813 0.022,-0.05132 0.03974,-0.103477 0.05374,-0.15813 z m -0.05374,0.15813 c -0.04405,0.102689 -0.104596,0.200368 -0.184485,0.298689 0.07989,-0.09832 0.140479,-0.196045 0.184485,-0.298689 z m -0.184485,0.298689 c -0.113021,0.139096 -1.470911,1.698761 -1.616439,1.856735 0.145528,-0.157974 1.503418,-1.717639 1.616439,-1.856735 z m -3.398759,0.398942 c -0.0034,0.0037 0.01577,0.162068 0.04237,0.351917 0.06932,0.494619 0.20783,0.751573 0.518314,0.960665 0.0718,0.04836 0.141803,0.08688 0.156063,0.08578 0.01425,-0.0011 0.308909,-0.314481 0.65474,-0.696599 l 0.628903,-0.695048 -0.996839,-0.0067 c -0.548406,-0.0037 -1.000156,-0.0037 -1.003556,0 z" /><path
       id="path7"
       style="opacity:0.5;fill:#000000;stroke:none;stroke-width:0.3;stroke-linecap:round;stroke-linejoin:round;stroke-dashoffset:1.13386;paint-order:markers fill stroke"
       d="m 94.027336,4.8751546 c -1.213014,-8.382e-4 -2.401921,0.00621 -2.401921,0.021704 0,0.012035 0.222624,1.8157047 0.49506,4.0080241 0.444825,3.5795393 0.493333,4.0058183 0.473873,4.1795903 -0.02664,0.23794 -0.109456,0.431227 -0.269234,0.627868 -0.113021,0.139096 -1.470911,1.698761 -1.616439,1.856735 l -0.06459,0.07028 h 2.903182 c 1.867907,0 2.952628,-0.009 3.041158,-0.02584 0.459204,-0.08709 0.830166,-0.458052 0.917256,-0.917256 0.03549,-0.18713 0.03598,-8.6614306 5.17e-4,-8.8526901 C 97.419918,5.3782646 97.018819,4.9731249 96.572922,4.900475 96.477402,4.8849 95.240354,4.875992 94.027341,4.875154 Z m 0.794266,2.7228312 c 0.274746,0 0.38344,0.1482588 0.38344,0.521932 v 0.232544 h 0.628902 c 0.527342,0 0.642895,0.00654 0.716235,0.041341 0.252488,0.1198141 0.28369,0.4907065 0.05478,0.6537069 -0.04251,0.030273 -0.131898,0.059576 -0.199988,0.066146 -0.08186,0.00787 -0.128486,0.026041 -0.139526,0.053744 -0.0091,0.022903 -0.04604,0.1222185 -0.08165,0.2206584 -0.137116,0.3791059 -0.428222,0.8910609 -0.735872,1.2944949 l -0.09043,0.118856 0.147278,0.12609 c 0.08105,0.06943 0.292143,0.237347 0.468705,0.373104 0.335391,0.257887 0.407727,0.348406 0.407727,0.51108 0,0.209892 -0.198217,0.385896 -0.414445,0.367936 -0.105294,-0.0087 -0.15772,-0.03799 -0.412895,-0.232544 -0.160675,-0.122504 -0.388349,-0.302415 -0.505912,-0.399975 -0.117564,-0.09756 -0.222084,-0.177747 -0.232544,-0.177767 -0.01046,-1.9e-5 -0.10848,0.07842 -0.217558,0.174149 -0.265069,0.232642 -0.682948,0.563115 -0.768428,0.607715 -0.22903,0.119486 -0.542769,-0.08136 -0.541569,-0.346749 6.9e-4,-0.147483 0.09684,-0.264946 0.447001,-0.547253 0.182817,-0.147389 0.381417,-0.311782 0.441317,-0.365352 l 0.10852,-0.09767 -0.135909,-0.1788 C 93.882523,10.265075 93.613122,9.7573116 93.441325,9.2821208 L 93.384998,9.1255412 93.262524,9.1136556 C 93.195166,9.1071796 93.1059,9.0776497 93.06357,9.0475098 92.834655,8.8845094 92.865341,8.513617 93.11783,8.3938029 c 0.07318,-0.03475 0.188286,-0.041341 0.703833,-0.041341 h 0.615983 v -0.232544 c 0,-0.3736732 0.109212,-0.521932 0.383956,-0.5219321 z m 0.01447,1.5213542 c -0.420719,0 -0.628386,0.00893 -0.628386,0.026872 0,0.099243 0.329954,0.6942502 0.575159,1.037146 0.03253,0.04557 0.03838,0.04468 0.0801,-0.0093 0.222559,-0.287978 0.528043,-0.8091803 0.583943,-0.9968382 l 0.01705,-0.05788 z" /></g></svg>
